<?xml version="1.0" encoding="utf-8" standalone="no"?>
<!DOCTYPE svg PUBLIC "-//W3C//DTD SVG 1.1//EN"
  "http://www.w3.org/Graphics/SVG/1.1/DTD/svg11.dtd">
<svg xmlns:xlink="http://www.w3.org/1999/xlink" width="514.148213pt" height="387.444894pt" viewBox="0 0 514.148213 387.444894" xmlns="http://www.w3.org/2000/svg" version="1.1">
 <metadata>
  <rdf:RDF xmlns:dc="http://purl.org/dc/elements/1.1/" xmlns:cc="http://creativecommons.org/ns#" xmlns:rdf="http://www.w3.org/1999/02/22-rdf-syntax-ns#">
   <cc:Work>
    <dc:type rdf:resource="http://purl.org/dc/dcmitype/StillImage"/>
    <dc:date>2024-08-11T20:28:05.383509</dc:date>
    <dc:format>image/svg+xml</dc:format>
    <dc:creator>
     <cc:Agent>
      <dc:title>Matplotlib v3.8.4, https://matplotlib.org/</dc:title>
     </cc:Agent>
    </dc:creator>
   </cc:Work>
  </rdf:RDF>
 </metadata>
 <defs>
  <style type="text/css">*{stroke-linejoin: round; stroke-linecap: butt}</style>
 </defs>
 <g id="figure_1">
  <g id="patch_1">
   <path d="M 0 387.444894 
L 514.148213 387.444894 
L 514.148213 0 
L 0 0 
z
" style="fill: #ffffff"/>
  </g>
  <g id="axes_1">
   <g id="patch_2">
    <path d="M 60.548213 333.819634 
L 506.948213 333.819634 
L 506.948213 56.619634 
L 60.548213 56.619634 
z
" style="fill: #ffffff"/>
   </g>
   <g id="PolyCollection_1">
    <defs>
     <path id="mb72b77b2a6" d="M 80.839122 -318.225261 
L 80.839122 -125.522211 
L 88.955486 -102.391902 
L 97.07185 -66.225261 
L 105.188213 -75.570887 
L 113.304577 -81.842967 
L 121.420941 -86.134281 
L 129.537304 -92.008251 
L 137.653668 -97.080411 
L 145.770031 -91.165184 
L 153.886395 -84.474314 
L 162.002759 -88.707356 
L 170.119122 -89.28059 
L 178.235486 -91.20693 
L 186.35185 -88.892887 
L 194.468213 -91.76337 
L 202.584577 -93.361667 
L 210.700941 -90.247913 
L 218.817304 -95.751546 
L 226.933668 -94.016454 
L 235.050031 -94.559679 
L 243.166395 -94.976119 
L 251.282759 -96.149134 
L 259.399122 -103.707183 
L 267.515486 -104.914354 
L 275.63185 -104.303407 
L 283.748213 -107.667102 
L 291.864577 -104.211221 
L 299.980941 -104.45794 
L 308.097304 -108.456314 
L 316.213668 -115.25393 
L 324.330031 -116.189845 
L 332.446395 -115.168931 
L 340.562759 -119.327741 
L 348.679122 -116.892202 
L 356.795486 -124.621032 
L 364.91185 -136.286825 
L 373.028213 -138.657574 
L 381.144577 -138.524048 
L 389.260941 -136.143028 
L 397.377304 -132.642242 
L 405.493668 -136.708125 
L 413.610031 -136.725076 
L 421.726395 -139.071279 
L 429.842759 -132.821517 
L 437.959122 -137.865622 
L 446.075486 -137.110361 
L 454.19185 -144.06816 
L 462.308213 -141.661552 
L 470.424577 -141.854385 
L 478.540941 -140.66313 
L 486.657304 -138.501682 
L 486.657304 -251.776157 
L 486.657304 -251.776157 
L 478.540941 -254.074405 
L 470.424577 -255.379475 
L 462.308213 -255.765974 
L 454.19185 -258.430941 
L 446.075486 -251.810424 
L 437.959122 -252.752838 
L 429.842759 -248.133701 
L 421.726395 -254.76311 
L 413.610031 -252.491744 
L 405.493668 -252.537069 
L 397.377304 -248.520938 
L 389.260941 -252.328398 
L 381.144577 -255.105461 
L 373.028213 -255.32464 
L 364.91185 -253.872992 
L 356.795486 -243.099764 
L 348.679122 -235.729165 
L 340.562759 -238.559312 
L 332.446395 -235.147956 
L 324.330031 -236.854278 
L 316.213668 -236.360915 
L 308.097304 -229.93482 
L 299.980941 -226.288158 
L 291.864577 -227.055247 
L 283.748213 -230.603379 
L 275.63185 -227.525187 
L 267.515486 -228.297757 
L 259.399122 -227.679807 
L 251.282759 -220.574285 
L 243.166395 -219.869574 
L 235.050031 -219.807794 
L 226.933668 -219.958769 
L 218.817304 -221.8801 
L 210.700941 -216.884637 
L 202.584577 -220.407962 
L 194.468213 -218.956435 
L 186.35185 -216.703898 
L 178.235486 -219.296641 
L 170.119122 -217.532232 
L 162.002759 -217.607436 
L 153.886395 -213.841247 
L 145.770031 -221.012456 
L 137.653668 -227.367375 
L 129.537304 -222.471025 
L 121.420941 -217.235507 
L 113.304577 -213.498285 
L 105.188213 -207.961401 
L 97.07185 -200.103328 
L 88.955486 -293.522512 
L 80.839122 -318.225261 
z
" style="stroke: #00a6d6; stroke-opacity: 0.2"/>
    </defs>
    <g clip-path="url(#p81e9fdc342)">
     <use xlink:href="#mb72b77b2a6" x="0" y="387.444894" style="fill: #00a6d6; fill-opacity: 0.2; stroke: #00a6d6; stroke-opacity: 0.2"/>
    </g>
   </g>
   <g id="matplotlib.axis_1">
    <g id="xtick_1">
     <g id="line2d_1">
      <path d="M 80.839122 333.819634 
L 80.839122 56.619634 
" clip-path="url(#p81e9fdc342)" style="fill: none; stroke: #b0b0b0; stroke-opacity: 0.4; stroke-width: 0.8; stroke-linecap: square"/>
     </g>
     <g id="line2d_2">
      <defs>
       <path id="m1f32ab16ff" d="M 0 0 
L 0 3.5 
" style="stroke: #000000; stroke-width: 0.8"/>
      </defs>
      <g>
       <use xlink:href="#m1f32ab16ff" x="80.839122" y="333.819634" style="stroke: #000000; stroke-width: 0.8"/>
      </g>
     </g>
     <g id="text_1">
      <!-- $\mathdefault{0}$ -->
      <g transform="translate(76.270075 354.65663) scale(0.2 -0.2)">
       <defs>
        <path id="CMR17-30" d="M 2688 2038 
C 2688 2430 2682 3099 2413 3613 
C 2176 4063 1798 4224 1466 4224 
C 1158 4224 768 4082 525 3620 
C 269 3137 243 2539 243 2038 
C 243 1671 250 1112 448 623 
C 723 -39 1216 -128 1466 -128 
C 1760 -128 2208 -7 2470 604 
C 2662 1048 2688 1568 2688 2038 
z
M 1466 -26 
C 1056 -26 813 328 723 816 
C 653 1196 653 1749 653 2109 
C 653 2604 653 3015 736 3407 
C 858 3954 1216 4121 1466 4121 
C 1728 4121 2067 3947 2189 3420 
C 2272 3054 2278 2623 2278 2109 
C 2278 1691 2278 1176 2202 797 
C 2067 96 1690 -26 1466 -26 
z
" transform="scale(0.015625)"/>
       </defs>
       <use xlink:href="#CMR17-30" transform="scale(0.996264)"/>
      </g>
     </g>
    </g>
    <g id="xtick_2">
     <g id="line2d_3">
      <path d="M 162.002759 333.819634 
L 162.002759 56.619634 
" clip-path="url(#p81e9fdc342)" style="fill: none; stroke: #b0b0b0; stroke-opacity: 0.4; stroke-width: 0.8; stroke-linecap: square"/>
     </g>
     <g id="line2d_4">
      <g>
       <use xlink:href="#m1f32ab16ff" x="162.002759" y="333.819634" style="stroke: #000000; stroke-width: 0.8"/>
      </g>
     </g>
     <g id="text_2">
      <!-- $\mathdefault{10}$ -->
      <g transform="translate(152.864663 354.65663) scale(0.2 -0.2)">
       <defs>
        <path id="CMR17-31" d="M 1702 4083 
C 1702 4217 1696 4224 1606 4224 
C 1357 3927 979 3833 621 3820 
C 602 3820 570 3820 563 3808 
C 557 3795 557 3782 557 3648 
C 755 3648 1088 3686 1344 3839 
L 1344 467 
C 1344 243 1331 166 781 166 
L 589 166 
L 589 0 
C 896 6 1216 12 1523 12 
C 1830 12 2150 6 2458 0 
L 2458 166 
L 2266 166 
C 1715 166 1702 236 1702 467 
L 1702 4083 
z
" transform="scale(0.015625)"/>
       </defs>
       <use xlink:href="#CMR17-31" transform="scale(0.996264)"/>
       <use xlink:href="#CMR17-30" transform="translate(45.690477 0) scale(0.996264)"/>
      </g>
     </g>
    </g>
    <g id="xtick_3">
     <g id="line2d_5">
      <path d="M 243.166395 333.819634 
L 243.166395 56.619634 
" clip-path="url(#p81e9fdc342)" style="fill: none; stroke: #b0b0b0; stroke-opacity: 0.4; stroke-width: 0.8; stroke-linecap: square"/>
     </g>
     <g id="line2d_6">
      <g>
       <use xlink:href="#m1f32ab16ff" x="243.166395" y="333.819634" style="stroke: #000000; stroke-width: 0.8"/>
      </g>
     </g>
     <g id="text_3">
      <!-- $\mathdefault{20}$ -->
      <g transform="translate(234.0283 354.65663) scale(0.2 -0.2)">
       <defs>
        <path id="CMR17-32" d="M 2669 990 
L 2554 990 
C 2490 537 2438 460 2413 422 
C 2381 371 1920 371 1830 371 
L 602 371 
C 832 620 1280 1073 1824 1596 
C 2214 1966 2669 2400 2669 3033 
C 2669 3788 2067 4224 1395 4224 
C 691 4224 262 3603 262 3027 
C 262 2777 448 2745 525 2745 
C 589 2745 781 2783 781 3007 
C 781 3206 614 3264 525 3264 
C 486 3264 448 3257 422 3244 
C 544 3788 915 4057 1306 4057 
C 1862 4057 2227 3616 2227 3033 
C 2227 2477 1901 1998 1536 1583 
L 262 147 
L 262 0 
L 2515 0 
L 2669 990 
z
" transform="scale(0.015625)"/>
       </defs>
       <use xlink:href="#CMR17-32" transform="scale(0.996264)"/>
       <use xlink:href="#CMR17-30" transform="translate(45.690477 0) scale(0.996264)"/>
      </g>
     </g>
    </g>
    <g id="xtick_4">
     <g id="line2d_7">
      <path d="M 324.330031 333.819634 
L 324.330031 56.619634 
" clip-path="url(#p81e9fdc342)" style="fill: none; stroke: #b0b0b0; stroke-opacity: 0.4; stroke-width: 0.8; stroke-linecap: square"/>
     </g>
     <g id="line2d_8">
      <g>
       <use xlink:href="#m1f32ab16ff" x="324.330031" y="333.819634" style="stroke: #000000; stroke-width: 0.8"/>
      </g>
     </g>
     <g id="text_4">
      <!-- $\mathdefault{30}$ -->
      <g transform="translate(315.191936 354.65663) scale(0.2 -0.2)">
       <defs>
        <path id="CMR17-33" d="M 1414 2176 
C 1984 2176 2234 1673 2234 1094 
C 2234 322 1824 25 1453 25 
C 1114 25 563 193 390 691 
C 422 678 454 678 486 678 
C 640 678 755 780 755 947 
C 755 1132 614 1216 486 1216 
C 378 1216 211 1164 211 927 
C 211 335 787 -128 1466 -128 
C 2176 -128 2720 432 2720 1087 
C 2720 1718 2208 2176 1600 2246 
C 2086 2347 2554 2776 2554 3353 
C 2554 3856 2048 4224 1472 4224 
C 890 4224 378 3862 378 3347 
C 378 3123 544 3084 627 3084 
C 762 3084 877 3167 877 3334 
C 877 3500 762 3584 627 3584 
C 602 3584 570 3584 544 3571 
C 730 3999 1235 4076 1459 4076 
C 1683 4076 2106 3966 2106 3347 
C 2106 3167 2080 2851 1862 2574 
C 1670 2329 1453 2316 1242 2297 
C 1210 2297 1062 2284 1037 2284 
C 992 2278 966 2272 966 2227 
C 966 2182 973 2176 1101 2176 
L 1414 2176 
z
" transform="scale(0.015625)"/>
       </defs>
       <use xlink:href="#CMR17-33" transform="scale(0.996264)"/>
       <use xlink:href="#CMR17-30" transform="translate(45.690477 0) scale(0.996264)"/>
      </g>
     </g>
    </g>
    <g id="xtick_5">
     <g id="line2d_9">
      <path d="M 405.493668 333.819634 
L 405.493668 56.619634 
" clip-path="url(#p81e9fdc342)" style="fill: none; stroke: #b0b0b0; stroke-opacity: 0.4; stroke-width: 0.8; stroke-linecap: square"/>
     </g>
     <g id="line2d_10">
      <g>
       <use xlink:href="#m1f32ab16ff" x="405.493668" y="333.819634" style="stroke: #000000; stroke-width: 0.8"/>
      </g>
     </g>
     <g id="text_5">
      <!-- $\mathdefault{40}$ -->
      <g transform="translate(396.355572 354.65663) scale(0.2 -0.2)">
       <defs>
        <path id="CMR17-34" d="M 2150 4147 
C 2150 4281 2144 4288 2029 4288 
L 128 1254 
L 128 1088 
L 1779 1088 
L 1779 460 
C 1779 230 1766 166 1318 166 
L 1197 166 
L 1197 0 
C 1402 12 1747 12 1965 12 
C 2182 12 2528 12 2733 0 
L 2733 166 
L 2611 166 
C 2163 166 2150 230 2150 460 
L 2150 1088 
L 2803 1088 
L 2803 1254 
L 2150 1254 
L 2150 4147 
z
M 1798 3723 
L 1798 1254 
L 256 1254 
L 1798 3723 
z
" transform="scale(0.015625)"/>
       </defs>
       <use xlink:href="#CMR17-34" transform="scale(0.996264)"/>
       <use xlink:href="#CMR17-30" transform="translate(45.690477 0) scale(0.996264)"/>
      </g>
     </g>
    </g>
    <g id="xtick_6">
     <g id="line2d_11">
      <path d="M 486.657304 333.819634 
L 486.657304 56.619634 
" clip-path="url(#p81e9fdc342)" style="fill: none; stroke: #b0b0b0; stroke-opacity: 0.4; stroke-width: 0.8; stroke-linecap: square"/>
     </g>
     <g id="line2d_12">
      <g>
       <use xlink:href="#m1f32ab16ff" x="486.657304" y="333.819634" style="stroke: #000000; stroke-width: 0.8"/>
      </g>
     </g>
     <g id="text_6">
      <!-- $\mathdefault{50}$ -->
      <g transform="translate(477.519209 354.65663) scale(0.2 -0.2)">
       <defs>
        <path id="CMR17-35" d="M 730 3750 
C 794 3724 1056 3641 1325 3641 
C 1920 3641 2246 3961 2432 4140 
C 2432 4191 2432 4224 2394 4224 
C 2387 4224 2374 4224 2323 4198 
C 2099 4102 1837 4032 1517 4032 
C 1325 4032 1037 4055 723 4191 
C 653 4224 640 4224 634 4224 
C 602 4224 595 4217 595 4090 
L 595 2231 
C 595 2113 595 2080 659 2080 
C 691 2080 704 2093 736 2139 
C 941 2435 1222 2560 1542 2560 
C 1766 2560 2246 2415 2246 1293 
C 2246 1087 2246 716 2054 422 
C 1894 159 1645 25 1370 25 
C 947 25 518 319 403 812 
C 429 806 480 793 506 793 
C 589 793 749 838 749 1036 
C 749 1209 627 1280 506 1280 
C 358 1280 262 1190 262 1011 
C 262 454 704 -128 1382 -128 
C 2042 -128 2669 441 2669 1267 
C 2669 2054 2170 2662 1549 2662 
C 1222 2662 947 2540 730 2304 
L 730 3750 
z
" transform="scale(0.015625)"/>
       </defs>
       <use xlink:href="#CMR17-35" transform="scale(0.996264)"/>
       <use xlink:href="#CMR17-30" transform="translate(45.690477 0) scale(0.996264)"/>
      </g>
     </g>
    </g>
    <g id="text_7">
     <!-- Assimilation steps -->
     <g transform="translate(213.995177 376.369261) scale(0.2 -0.2)">
      <defs>
       <path id="CMSS17-41" d="M 2272 4416 
L 1722 4416 
L 166 0 
L 653 0 
L 1101 1280 
L 2816 1280 
L 3270 0 
L 3827 0 
L 2272 4416 
z
M 2694 1638 
L 1222 1638 
C 1530 2530 1914 3638 1958 3924 
L 1965 3924 
C 2010 3663 2138 3281 2246 2956 
L 2694 1638 
z
" transform="scale(0.015625)"/>
       <path id="CMSS17-73" d="M 2061 2623 
C 1683 2803 1389 2816 1197 2816 
C 742 2816 198 2655 198 2009 
C 198 1363 902 1222 1094 1183 
C 1389 1126 1715 1062 1715 742 
C 1715 339 1254 339 1171 339 
C 915 339 563 409 243 639 
L 166 211 
C 531 0 883 -64 1178 -64 
C 1965 -64 2163 416 2163 780 
C 2163 1094 1984 1305 1862 1401 
C 1651 1567 1574 1587 1050 1695 
C 960 1708 646 1779 646 2067 
C 646 2431 1050 2431 1139 2431 
C 1555 2431 1811 2303 1984 2207 
L 2061 2623 
z
" transform="scale(0.015625)"/>
       <path id="CMSS17-69" d="M 979 4224 
L 442 4224 
L 442 3686 
L 979 3686 
L 979 4224 
z
M 947 2752 
L 474 2752 
L 474 0 
L 947 0 
L 947 2752 
z
" transform="scale(0.015625)"/>
       <path id="CMSS17-6d" d="M 4288 1878 
C 4288 2309 4179 2816 3462 2816 
C 2982 2816 2694 2515 2566 2328 
C 2451 2668 2182 2816 1798 2816 
C 1363 2816 1088 2566 941 2386 
L 941 2783 
L 474 2783 
L 474 0 
L 960 0 
L 960 1556 
C 960 1936 1101 2425 1555 2425 
C 2138 2425 2138 2013 2138 1826 
L 2138 0 
L 2624 0 
L 2624 1556 
C 2624 1936 2765 2425 3219 2425 
C 3802 2425 3802 2013 3802 1826 
L 3802 0 
L 4288 0 
L 4288 1878 
z
" transform="scale(0.015625)"/>
       <path id="CMSS17-6c" d="M 947 4416 
L 474 4416 
L 474 0 
L 947 0 
L 947 4416 
z
" transform="scale(0.015625)"/>
       <path id="CMSS17-61" d="M 2406 1789 
C 2406 2399 1978 2816 1402 2816 
C 1120 2816 813 2764 461 2559 
L 499 2133 
C 659 2250 934 2438 1395 2438 
C 1722 2438 1920 2185 1920 1782 
L 1920 1536 
C 896 1504 256 1209 256 711 
C 256 452 416 -64 947 -64 
C 1043 -64 1562 -52 1933 224 
L 1933 -13 
L 2406 -13 
L 2406 1789 
z
M 1920 824 
C 1920 711 1920 559 1728 446 
C 1562 339 1350 326 1261 326 
C 941 326 723 503 723 723 
C 723 1165 1722 1209 1920 1216 
L 1920 824 
z
" transform="scale(0.015625)"/>
       <path id="CMSS17-74" d="M 1069 2380 
L 1901 2380 
L 1901 2752 
L 1069 2752 
L 1069 3520 
L 614 3520 
L 614 2752 
L 109 2752 
L 109 2380 
L 602 2380 
L 602 751 
C 602 384 685 -64 1107 -64 
C 1427 -64 1722 25 2003 172 
L 1901 551 
C 1747 416 1562 339 1363 339 
C 1082 339 1069 699 1069 860 
L 1069 2380 
z
" transform="scale(0.015625)"/>
       <path id="CMSS17-6f" d="M 2829 1356 
C 2829 2175 2221 2816 1504 2816 
C 768 2816 173 2156 173 1356 
C 173 544 787 -64 1498 -64 
C 2227 -64 2829 563 2829 1356 
z
M 1504 339 
C 1050 339 659 710 659 1407 
C 659 2150 1114 2425 1498 2425 
C 1914 2425 2342 2124 2342 1407 
C 2342 684 1926 339 1504 339 
z
" transform="scale(0.015625)"/>
       <path id="CMSS17-6e" d="M 2618 1878 
C 2618 2283 2522 2816 1798 2816 
C 1389 2816 1120 2604 941 2386 
L 941 2783 
L 474 2783 
L 474 0 
L 960 0 
L 960 1556 
C 960 1962 1114 2425 1549 2425 
C 2112 2425 2131 2045 2131 1826 
L 2131 0 
L 2618 0 
L 2618 1878 
z
" transform="scale(0.015625)"/>
       <path id="CMSS17-65" d="M 2502 1375 
C 2502 1587 2490 2001 2285 2347 
C 2061 2713 1696 2816 1421 2816 
C 755 2816 192 2184 192 1363 
C 192 579 774 -64 1510 -64 
C 1798 -64 2150 19 2470 249 
C 2470 275 2458 414 2451 421 
C 2451 433 2432 629 2432 655 
C 2125 408 1773 326 1517 326 
C 1107 326 666 667 646 1375 
L 2502 1375 
z
M 698 1728 
C 781 2086 1062 2425 1421 2425 
C 1517 2425 1965 2412 2080 1728 
L 698 1728 
z
" transform="scale(0.015625)"/>
       <path id="CMSS17-70" d="M 966 275 
C 1178 70 1466 -64 1773 -64 
C 2368 -64 2880 553 2880 1382 
C 2880 2147 2496 2816 1946 2816 
C 1626 2816 1242 2700 954 2470 
L 954 2764 
L 480 2764 
L 480 -1280 
L 966 -1280 
L 966 275 
z
M 966 2088 
C 1018 2166 1235 2412 1587 2412 
C 2035 2412 2394 1946 2394 1382 
C 2394 741 1958 326 1530 326 
C 1402 326 1267 358 1139 468 
C 966 624 966 721 966 812 
L 966 2088 
z
" transform="scale(0.015625)"/>
      </defs>
      <use xlink:href="#CMSS17-41" transform="scale(0.996264)"/>
      <use xlink:href="#CMSS17-73" transform="translate(62.217855 0) scale(0.996264)"/>
      <use xlink:href="#CMSS17-73" transform="translate(98.131397 0) scale(0.996264)"/>
      <use xlink:href="#CMSS17-69" transform="translate(134.044939 0) scale(0.996264)"/>
      <use xlink:href="#CMSS17-6d" transform="translate(156.225662 0) scale(0.996264)"/>
      <use xlink:href="#CMSS17-69" transform="translate(230.454916 0) scale(0.996264)"/>
      <use xlink:href="#CMSS17-6c" transform="translate(252.635639 0) scale(0.996264)"/>
      <use xlink:href="#CMSS17-61" transform="translate(274.816362 0) scale(0.996264)"/>
      <use xlink:href="#CMSS17-74" transform="translate(319.738283 0) scale(0.996264)"/>
      <use xlink:href="#CMSS17-69" transform="translate(353.56985 0) scale(0.996264)"/>
      <use xlink:href="#CMSS17-6f" transform="translate(375.750573 0) scale(0.996264)"/>
      <use xlink:href="#CMSS17-6e" transform="translate(422.594196 0) scale(0.996264)"/>
      <use xlink:href="#CMSS17-73" transform="translate(502.028252 0) scale(0.996264)"/>
      <use xlink:href="#CMSS17-74" transform="translate(537.941794 0) scale(0.996264)"/>
      <use xlink:href="#CMSS17-65" transform="translate(571.773361 0) scale(0.996264)"/>
      <use xlink:href="#CMSS17-70" transform="translate(613.412183 0) scale(0.996264)"/>
      <use xlink:href="#CMSS17-73" transform="translate(661.617126 0) scale(0.996264)"/>
     </g>
    </g>
   </g>
   <g id="matplotlib.axis_2">
    <g id="ytick_1">
     <g id="line2d_13">
      <path d="M 60.548213 305.669756 
L 506.948213 305.669756 
" clip-path="url(#p81e9fdc342)" style="fill: none; stroke: #b0b0b0; stroke-opacity: 0.4; stroke-width: 0.8; stroke-linecap: square"/>
     </g>
     <g id="line2d_14">
      <defs>
       <path id="md1724b7798" d="M 0 0 
L -3.5 0 
" style="stroke: #000000; stroke-width: 0.8"/>
      </defs>
      <g>
       <use xlink:href="#md1724b7798" x="60.548213" y="305.669756" style="stroke: #000000; stroke-width: 0.8"/>
      </g>
     </g>
     <g id="text_8">
      <!-- $\mathdefault{−1}$ -->
      <g transform="translate(28.91263 312.588254) scale(0.2 -0.2)">
       <defs>
        <path id="CMSY10-0" d="M 4218 1472 
C 4326 1472 4442 1472 4442 1600 
C 4442 1728 4326 1728 4218 1728 
L 755 1728 
C 646 1728 531 1728 531 1600 
C 531 1472 646 1472 755 1472 
L 4218 1472 
z
" transform="scale(0.015625)"/>
       </defs>
       <use xlink:href="#CMSY10-0" transform="scale(0.996264)"/>
       <use xlink:href="#CMR17-31" transform="translate(77.487468 0) scale(0.996264)"/>
      </g>
     </g>
    </g>
    <g id="ytick_2">
     <g id="line2d_15">
      <path d="M 60.548213 258.893322 
L 506.948213 258.893322 
" clip-path="url(#p81e9fdc342)" style="fill: none; stroke: #b0b0b0; stroke-opacity: 0.4; stroke-width: 0.8; stroke-linecap: square"/>
     </g>
     <g id="line2d_16">
      <g>
       <use xlink:href="#md1724b7798" x="60.548213" y="258.893322" style="stroke: #000000; stroke-width: 0.8"/>
      </g>
     </g>
     <g id="text_9">
      <!-- $\mathdefault{0}$ -->
      <g transform="translate(44.410118 265.81182) scale(0.2 -0.2)">
       <use xlink:href="#CMR17-30" transform="scale(0.996264)"/>
      </g>
     </g>
    </g>
    <g id="ytick_3">
     <g id="line2d_17">
      <path d="M 60.548213 212.116888 
L 506.948213 212.116888 
" clip-path="url(#p81e9fdc342)" style="fill: none; stroke: #b0b0b0; stroke-opacity: 0.4; stroke-width: 0.8; stroke-linecap: square"/>
     </g>
     <g id="line2d_18">
      <g>
       <use xlink:href="#md1724b7798" x="60.548213" y="212.116888" style="stroke: #000000; stroke-width: 0.8"/>
      </g>
     </g>
     <g id="text_10">
      <!-- $\mathdefault{1}$ -->
      <g transform="translate(44.410118 219.035386) scale(0.2 -0.2)">
       <use xlink:href="#CMR17-31" transform="scale(0.996264)"/>
      </g>
     </g>
    </g>
    <g id="ytick_4">
     <g id="line2d_19">
      <path d="M 60.548213 165.340454 
L 506.948213 165.340454 
" clip-path="url(#p81e9fdc342)" style="fill: none; stroke: #b0b0b0; stroke-opacity: 0.4; stroke-width: 0.8; stroke-linecap: square"/>
     </g>
     <g id="line2d_20">
      <g>
       <use xlink:href="#md1724b7798" x="60.548213" y="165.340454" style="stroke: #000000; stroke-width: 0.8"/>
      </g>
     </g>
     <g id="text_11">
      <!-- $\mathdefault{2}$ -->
      <g transform="translate(44.410118 172.258952) scale(0.2 -0.2)">
       <use xlink:href="#CMR17-32" transform="scale(0.996264)"/>
      </g>
     </g>
    </g>
    <g id="ytick_5">
     <g id="line2d_21">
      <path d="M 60.548213 118.56402 
L 506.948213 118.56402 
" clip-path="url(#p81e9fdc342)" style="fill: none; stroke: #b0b0b0; stroke-opacity: 0.4; stroke-width: 0.8; stroke-linecap: square"/>
     </g>
     <g id="line2d_22">
      <g>
       <use xlink:href="#md1724b7798" x="60.548213" y="118.56402" style="stroke: #000000; stroke-width: 0.8"/>
      </g>
     </g>
     <g id="text_12">
      <!-- $\mathdefault{3}$ -->
      <g transform="translate(44.410118 125.482518) scale(0.2 -0.2)">
       <use xlink:href="#CMR17-33" transform="scale(0.996264)"/>
      </g>
     </g>
    </g>
    <g id="ytick_6">
     <g id="line2d_23">
      <path d="M 60.548213 71.787586 
L 506.948213 71.787586 
" clip-path="url(#p81e9fdc342)" style="fill: none; stroke: #b0b0b0; stroke-opacity: 0.4; stroke-width: 0.8; stroke-linecap: square"/>
     </g>
     <g id="line2d_24">
      <g>
       <use xlink:href="#md1724b7798" x="60.548213" y="71.787586" style="stroke: #000000; stroke-width: 0.8"/>
      </g>
     </g>
     <g id="text_13">
      <!-- $\mathdefault{4}$ -->
      <g transform="translate(44.410118 78.706084) scale(0.2 -0.2)">
       <use xlink:href="#CMR17-34" transform="scale(0.996264)"/>
      </g>
     </g>
    </g>
    <g id="text_14">
     <!-- Bias $b$ -->
     <g transform="translate(21.036997 219.025541) rotate(-90) scale(0.2 -0.2)">
      <defs>
       <path id="CMSS17-42" d="M 570 4416 
L 570 0 
L 2163 0 
C 3034 0 3667 575 3667 1200 
C 3667 1684 3251 2175 2502 2316 
C 3334 2559 3501 3039 3501 3311 
C 3501 3880 2874 4416 1997 4416 
L 570 4416 
z
M 1088 2496 
L 1088 4057 
L 1824 4057 
C 2483 4057 3002 3722 3002 3305 
C 3002 2925 2592 2496 1766 2496 
L 1088 2496 
z
M 1088 358 
L 1088 2105 
L 1939 2105 
C 2630 2105 3162 1678 3162 1206 
C 3162 772 2694 358 1984 358 
L 1088 358 
z
" transform="scale(0.015625)"/>
       <path id="CMMI12-62" d="M 1478 4255 
C 1485 4281 1498 4319 1498 4351 
C 1498 4416 1434 4416 1421 4416 
C 1414 4416 1184 4396 1069 4383 
C 960 4377 864 4364 749 4358 
C 595 4345 550 4339 550 4223 
C 550 4159 614 4159 678 4159 
C 1005 4159 1005 4103 1005 4040 
C 1005 3995 954 3812 928 3699 
L 774 3093 
C 710 2841 346 1392 320 1277 
C 288 1117 288 1008 288 925 
C 288 274 653 -64 1069 -64 
C 1811 -64 2579 887 2579 1813 
C 2579 2400 2246 2816 1766 2816 
C 1434 2816 1133 2541 1011 2413 
L 1478 4255 
z
M 1075 64 
C 870 64 646 217 646 715 
C 646 925 666 1047 781 1494 
C 800 1577 902 1985 928 2068 
C 941 2119 1318 2687 1754 2687 
C 2035 2687 2163 2407 2163 2075 
C 2163 1768 1984 1047 1824 715 
C 1664 370 1370 64 1075 64 
z
" transform="scale(0.015625)"/>
      </defs>
      <use xlink:href="#CMSS17-42" transform="scale(0.996264)"/>
      <use xlink:href="#CMSS17-69" transform="translate(62.33804 0) scale(0.996264)"/>
      <use xlink:href="#CMSS17-61" transform="translate(84.518763 0) scale(0.996264)"/>
      <use xlink:href="#CMSS17-73" transform="translate(129.440684 0) scale(0.996264)"/>
      <use xlink:href="#CMMI12-62" transform="translate(196.583339 0) scale(0.996264)"/>
     </g>
    </g>
   </g>
   <g id="line2d_25">
    <path d="M 80.839122 165.571158 
L 88.955486 165.571158 
L 88.955486 189.487687 
L 97.07185 189.487687 
L 97.07185 254.2806 
L 105.188213 254.2806 
L 105.188213 245.67875 
L 113.304577 245.67875 
L 113.304577 239.774268 
L 121.420941 239.774268 
L 121.420941 235.760001 
L 129.537304 235.760001 
L 129.537304 230.205256 
L 137.653668 230.205256 
L 137.653668 225.221001 
L 145.770031 225.221001 
L 145.770031 231.356074 
L 153.886395 231.356074 
L 153.886395 238.287114 
L 162.002759 238.287114 
L 162.002759 234.287498 
L 170.119122 234.287498 
L 170.119122 234.038483 
L 178.235486 234.038483 
L 178.235486 232.193109 
L 186.35185 232.193109 
L 186.35185 234.646502 
L 194.468213 234.646502 
L 194.468213 232.084992 
L 202.584577 232.084992 
L 202.584577 230.56008 
L 210.700941 230.56008 
L 210.700941 233.878619 
L 218.817304 233.878619 
L 218.817304 228.629071 
L 226.933668 228.629071 
L 226.933668 230.457283 
L 235.050031 230.457283 
L 235.050031 230.261158 
L 243.166395 230.261158 
L 243.166395 230.022048 
L 251.282759 230.022048 
L 251.282759 229.083184 
L 259.399122 229.083184 
L 259.399122 221.751399 
L 267.515486 221.751399 
L 267.515486 220.838839 
L 275.63185 220.838839 
L 275.63185 221.530597 
L 283.748213 221.530597 
L 283.748213 218.309654 
L 291.864577 218.309654 
L 291.864577 221.811661 
L 299.980941 221.811661 
L 299.980941 222.071846 
L 308.097304 222.071846 
L 308.097304 218.249327 
L 316.213668 218.249327 
L 316.213668 211.637472 
L 324.330031 211.637472 
L 324.330031 210.922833 
L 332.446395 210.922833 
L 332.446395 212.286451 
L 340.562759 212.286451 
L 340.562759 208.501368 
L 348.679122 208.501368 
L 348.679122 211.134211 
L 356.795486 211.134211 
L 356.795486 203.584496 
L 364.91185 203.584496 
L 364.91185 192.364986 
L 373.028213 192.364986 
L 373.028213 190.453788 
L 381.144577 190.453788 
L 381.144577 190.63014 
L 389.260941 190.63014 
L 389.260941 193.209181 
L 397.377304 193.209181 
L 397.377304 196.863305 
L 405.493668 196.863305 
L 405.493668 192.822297 
L 413.610031 192.822297 
L 413.610031 192.836484 
L 421.726395 192.836484 
L 421.726395 190.5277 
L 429.842759 190.5277 
L 429.842759 196.967285 
L 437.959122 196.967285 
L 437.959122 192.135664 
L 446.075486 192.135664 
L 446.075486 192.984502 
L 454.19185 192.984502 
L 454.19185 186.195344 
L 462.308213 186.195344 
L 462.308213 188.731131 
L 470.424577 188.731131 
L 470.424577 188.827964 
L 478.540941 188.827964 
L 478.540941 190.076127 
L 486.657304 190.076127 
L 486.657304 192.305975 
" clip-path="url(#p81e9fdc342)" style="fill: none; stroke: #00a6d6; stroke-width: 1.5; stroke-linecap: square"/>
    <defs>
     <path id="m83c1f0441f" d="M 0 2.5 
C 0.663008 2.5 1.29895 2.236584 1.767767 1.767767 
C 2.236584 1.29895 2.5 0.663008 2.5 0 
C 2.5 -0.663008 2.236584 -1.29895 1.767767 -1.767767 
C 1.29895 -2.236584 0.663008 -2.5 0 -2.5 
C -0.663008 -2.5 -1.29895 -2.236584 -1.767767 -1.767767 
C -2.236584 -1.29895 -2.5 -0.663008 -2.5 0 
C -2.5 0.663008 -2.236584 1.29895 -1.767767 1.767767 
C -1.29895 2.236584 -0.663008 2.5 0 2.5 
z
" style="stroke: #00a6d6"/>
    </defs>
    <g clip-path="url(#p81e9fdc342)">
     <use xlink:href="#m83c1f0441f" x="80.839122" y="165.571158" style="fill: #00a6d6; stroke: #00a6d6"/>
     <use xlink:href="#m83c1f0441f" x="88.955486" y="189.487687" style="fill: #00a6d6; stroke: #00a6d6"/>
     <use xlink:href="#m83c1f0441f" x="97.07185" y="254.2806" style="fill: #00a6d6; stroke: #00a6d6"/>
     <use xlink:href="#m83c1f0441f" x="105.188213" y="245.67875" style="fill: #00a6d6; stroke: #00a6d6"/>
     <use xlink:href="#m83c1f0441f" x="113.304577" y="239.774268" style="fill: #00a6d6; stroke: #00a6d6"/>
     <use xlink:href="#m83c1f0441f" x="121.420941" y="235.760001" style="fill: #00a6d6; stroke: #00a6d6"/>
     <use xlink:href="#m83c1f0441f" x="129.537304" y="230.205256" style="fill: #00a6d6; stroke: #00a6d6"/>
     <use xlink:href="#m83c1f0441f" x="137.653668" y="225.221001" style="fill: #00a6d6; stroke: #00a6d6"/>
     <use xlink:href="#m83c1f0441f" x="145.770031" y="231.356074" style="fill: #00a6d6; stroke: #00a6d6"/>
     <use xlink:href="#m83c1f0441f" x="153.886395" y="238.287114" style="fill: #00a6d6; stroke: #00a6d6"/>
     <use xlink:href="#m83c1f0441f" x="162.002759" y="234.287498" style="fill: #00a6d6; stroke: #00a6d6"/>
     <use xlink:href="#m83c1f0441f" x="170.119122" y="234.038483" style="fill: #00a6d6; stroke: #00a6d6"/>
     <use xlink:href="#m83c1f0441f" x="178.235486" y="232.193109" style="fill: #00a6d6; stroke: #00a6d6"/>
     <use xlink:href="#m83c1f0441f" x="186.35185" y="234.646502" style="fill: #00a6d6; stroke: #00a6d6"/>
     <use xlink:href="#m83c1f0441f" x="194.468213" y="232.084992" style="fill: #00a6d6; stroke: #00a6d6"/>
     <use xlink:href="#m83c1f0441f" x="202.584577" y="230.56008" style="fill: #00a6d6; stroke: #00a6d6"/>
     <use xlink:href="#m83c1f0441f" x="210.700941" y="233.878619" style="fill: #00a6d6; stroke: #00a6d6"/>
     <use xlink:href="#m83c1f0441f" x="218.817304" y="228.629071" style="fill: #00a6d6; stroke: #00a6d6"/>
     <use xlink:href="#m83c1f0441f" x="226.933668" y="230.457283" style="fill: #00a6d6; stroke: #00a6d6"/>
     <use xlink:href="#m83c1f0441f" x="235.050031" y="230.261158" style="fill: #00a6d6; stroke: #00a6d6"/>
     <use xlink:href="#m83c1f0441f" x="243.166395" y="230.022048" style="fill: #00a6d6; stroke: #00a6d6"/>
     <use xlink:href="#m83c1f0441f" x="251.282759" y="229.083184" style="fill: #00a6d6; stroke: #00a6d6"/>
     <use xlink:href="#m83c1f0441f" x="259.399122" y="221.751399" style="fill: #00a6d6; stroke: #00a6d6"/>
     <use xlink:href="#m83c1f0441f" x="267.515486" y="220.838839" style="fill: #00a6d6; stroke: #00a6d6"/>
     <use xlink:href="#m83c1f0441f" x="275.63185" y="221.530597" style="fill: #00a6d6; stroke: #00a6d6"/>
     <use xlink:href="#m83c1f0441f" x="283.748213" y="218.309654" style="fill: #00a6d6; stroke: #00a6d6"/>
     <use xlink:href="#m83c1f0441f" x="291.864577" y="221.811661" style="fill: #00a6d6; stroke: #00a6d6"/>
     <use xlink:href="#m83c1f0441f" x="299.980941" y="222.071846" style="fill: #00a6d6; stroke: #00a6d6"/>
     <use xlink:href="#m83c1f0441f" x="308.097304" y="218.249327" style="fill: #00a6d6; stroke: #00a6d6"/>
     <use xlink:href="#m83c1f0441f" x="316.213668" y="211.637472" style="fill: #00a6d6; stroke: #00a6d6"/>
     <use xlink:href="#m83c1f0441f" x="324.330031" y="210.922833" style="fill: #00a6d6; stroke: #00a6d6"/>
     <use xlink:href="#m83c1f0441f" x="332.446395" y="212.286451" style="fill: #00a6d6; stroke: #00a6d6"/>
     <use xlink:href="#m83c1f0441f" x="340.562759" y="208.501368" style="fill: #00a6d6; stroke: #00a6d6"/>
     <use xlink:href="#m83c1f0441f" x="348.679122" y="211.134211" style="fill: #00a6d6; stroke: #00a6d6"/>
     <use xlink:href="#m83c1f0441f" x="356.795486" y="203.584496" style="fill: #00a6d6; stroke: #00a6d6"/>
     <use xlink:href="#m83c1f0441f" x="364.91185" y="192.364986" style="fill: #00a6d6; stroke: #00a6d6"/>
     <use xlink:href="#m83c1f0441f" x="373.028213" y="190.453788" style="fill: #00a6d6; stroke: #00a6d6"/>
     <use xlink:href="#m83c1f0441f" x="381.144577" y="190.63014" style="fill: #00a6d6; stroke: #00a6d6"/>
     <use xlink:href="#m83c1f0441f" x="389.260941" y="193.209181" style="fill: #00a6d6; stroke: #00a6d6"/>
     <use xlink:href="#m83c1f0441f" x="397.377304" y="196.863305" style="fill: #00a6d6; stroke: #00a6d6"/>
     <use xlink:href="#m83c1f0441f" x="405.493668" y="192.822297" style="fill: #00a6d6; stroke: #00a6d6"/>
     <use xlink:href="#m83c1f0441f" x="413.610031" y="192.836484" style="fill: #00a6d6; stroke: #00a6d6"/>
     <use xlink:href="#m83c1f0441f" x="421.726395" y="190.5277" style="fill: #00a6d6; stroke: #00a6d6"/>
     <use xlink:href="#m83c1f0441f" x="429.842759" y="196.967285" style="fill: #00a6d6; stroke: #00a6d6"/>
     <use xlink:href="#m83c1f0441f" x="437.959122" y="192.135664" style="fill: #00a6d6; stroke: #00a6d6"/>
     <use xlink:href="#m83c1f0441f" x="446.075486" y="192.984502" style="fill: #00a6d6; stroke: #00a6d6"/>
     <use xlink:href="#m83c1f0441f" x="454.19185" y="186.195344" style="fill: #00a6d6; stroke: #00a6d6"/>
     <use xlink:href="#m83c1f0441f" x="462.308213" y="188.731131" style="fill: #00a6d6; stroke: #00a6d6"/>
     <use xlink:href="#m83c1f0441f" x="470.424577" y="188.827964" style="fill: #00a6d6; stroke: #00a6d6"/>
     <use xlink:href="#m83c1f0441f" x="478.540941" y="190.076127" style="fill: #00a6d6; stroke: #00a6d6"/>
     <use xlink:href="#m83c1f0441f" x="486.657304" y="192.305975" style="fill: #00a6d6; stroke: #00a6d6"/>
    </g>
   </g>
   <g id="line2d_26">
    <path d="M 60.548213 212.116888 
L 506.948213 212.116888 
" clip-path="url(#p81e9fdc342)" style="fill: none; stroke-dasharray: 1.5,2.475; stroke-dashoffset: 0; stroke: #00a6d6; stroke-opacity: 0.8; stroke-width: 1.5"/>
   </g>
   <g id="patch_3">
    <path d="M 60.548213 333.819634 
L 60.548213 56.619634 
" style="fill: none; stroke: #000000; stroke-width: 0.8; stroke-linejoin: miter; stroke-linecap: square"/>
   </g>
   <g id="patch_4">
    <path d="M 506.948213 333.819634 
L 506.948213 56.619634 
" style="fill: none; stroke: #000000; stroke-width: 0.8; stroke-linejoin: miter; stroke-linecap: square"/>
   </g>
   <g id="patch_5">
    <path d="M 60.548213 333.819634 
L 506.948213 333.819634 
" style="fill: none; stroke: #000000; stroke-width: 0.8; stroke-linejoin: miter; stroke-linecap: square"/>
   </g>
   <g id="patch_6">
    <path d="M 60.548213 56.619634 
L 506.948213 56.619634 
" style="fill: none; stroke: #000000; stroke-width: 0.8; stroke-linejoin: miter; stroke-linecap: square"/>
   </g>
   <g id="legend_1">
    <g id="patch_7">
     <path d="M 385.315541 41.075634 
L 492.948213 41.075634 
Q 496.948213 41.075634 496.948213 37.075634 
L 496.948213 11.2 
Q 496.948213 7.2 492.948213 7.2 
L 385.315541 7.2 
Q 381.315541 7.2 381.315541 11.2 
L 381.315541 37.075634 
Q 381.315541 41.075634 385.315541 41.075634 
z
" style="fill: #ffffff; opacity: 0.8; stroke: #cccccc; stroke-linejoin: miter"/>
    </g>
    <g id="line2d_27">
     <path d="M 389.315541 22.2 
L 409.315541 22.2 
L 429.315541 22.2 
" style="fill: none; stroke-dasharray: 1.5,2.475; stroke-dashoffset: 0; stroke: #00a6d6; stroke-opacity: 0.8; stroke-width: 1.5"/>
    </g>
    <g id="text_15">
     <!-- Truth -->
     <g transform="translate(445.315541 29.2) scale(0.2 -0.2)">
      <defs>
       <path id="CMSS17-54" d="M 2317 3987 
L 2848 3987 
C 2925 3987 3002 3980 3078 3980 
L 3878 3980 
L 3878 4396 
L 218 4396 
L 218 3980 
L 1018 3980 
C 1094 3980 1171 3987 1248 3987 
L 1779 3987 
L 1779 0 
L 2317 0 
L 2317 3987 
z
" transform="scale(0.015625)"/>
       <path id="CMSS17-72" d="M 954 1369 
C 954 1974 1395 2379 1958 2392 
L 1958 2816 
C 1549 2809 1165 2604 934 2270 
L 934 2783 
L 480 2783 
L 480 0 
L 954 0 
L 954 1369 
z
" transform="scale(0.015625)"/>
       <path id="CMSS17-75" d="M 2618 2752 
L 2131 2752 
L 2131 976 
C 2131 500 1786 307 1421 307 
C 998 307 960 448 960 712 
L 960 2752 
L 474 2752 
L 474 680 
C 474 179 646 -64 1088 -64 
C 1306 -64 1798 -13 2144 307 
L 2144 -13 
L 2618 -13 
L 2618 2752 
z
" transform="scale(0.015625)"/>
       <path id="CMSS17-68" d="M 2618 1878 
C 2618 2283 2522 2816 1798 2816 
C 1395 2816 1133 2617 947 2399 
L 947 4416 
L 474 4416 
L 474 0 
L 960 0 
L 960 1556 
C 960 1962 1114 2425 1549 2425 
C 2112 2425 2131 2045 2131 1826 
L 2131 0 
L 2618 0 
L 2618 1878 
z
" transform="scale(0.015625)"/>
      </defs>
      <use xlink:href="#CMSS17-54" transform="scale(0.996264)"/>
      <use xlink:href="#CMSS17-72" transform="translate(56.012199 0) scale(0.996264)"/>
      <use xlink:href="#CMSS17-75" transform="translate(87.921971 0) scale(0.996264)"/>
      <use xlink:href="#CMSS17-74" transform="translate(136.126914 0) scale(0.996264)"/>
      <use xlink:href="#CMSS17-68" transform="translate(169.958481 0) scale(0.996264)"/>
     </g>
    </g>
   </g>
  </g>
 </g>
 <defs>
  <clipPath id="p81e9fdc342">
   <rect x="60.548213" y="56.619634" width="446.4" height="277.2"/>
  </clipPath>
 </defs>
</svg>
