<?xml version="1.0" encoding="utf-8" standalone="no"?>
<!DOCTYPE svg PUBLIC "-//W3C//DTD SVG 1.1//EN"
  "http://www.w3.org/Graphics/SVG/1.1/DTD/svg11.dtd">
<svg xmlns:xlink="http://www.w3.org/1999/xlink" width="507.788821pt" height="387.444894pt" viewBox="0 0 507.788821 387.444894" xmlns="http://www.w3.org/2000/svg" version="1.1">
 <metadata>
  <rdf:RDF xmlns:dc="http://purl.org/dc/elements/1.1/" xmlns:cc="http://creativecommons.org/ns#" xmlns:rdf="http://www.w3.org/1999/02/22-rdf-syntax-ns#">
   <cc:Work>
    <dc:type rdf:resource="http://purl.org/dc/dcmitype/StillImage"/>
    <dc:date>2024-08-11T20:28:04.506382</dc:date>
    <dc:format>image/svg+xml</dc:format>
    <dc:creator>
     <cc:Agent>
      <dc:title>Matplotlib v3.8.4, https://matplotlib.org/</dc:title>
     </cc:Agent>
    </dc:creator>
   </cc:Work>
  </rdf:RDF>
 </metadata>
 <defs>
  <style type="text/css">*{stroke-linejoin: round; stroke-linecap: butt}</style>
 </defs>
 <g id="figure_1">
  <g id="patch_1">
   <path d="M 0 387.444894 
L 507.788821 387.444894 
L 507.788821 0 
L 0 0 
z
" style="fill: #ffffff"/>
  </g>
  <g id="axes_1">
   <g id="patch_2">
    <path d="M 54.188821 333.819634 
L 500.588821 333.819634 
L 500.588821 56.619634 
L 54.188821 56.619634 
z
" style="fill: #ffffff"/>
   </g>
   <g id="PolyCollection_1">
    <defs>
     <path id="m0af3b2814a" d="M 74.47973 -318.225261 
L 74.47973 -99.864149 
L 82.596094 -87.238551 
L 90.712458 -66.225261 
L 98.828821 -77.341204 
L 106.945185 -88.491177 
L 115.061548 -93.027297 
L 123.177912 -97.29498 
L 131.294276 -96.167762 
L 139.410639 -92.249072 
L 147.527003 -92.249394 
L 155.643367 -92.223388 
L 163.75973 -91.358121 
L 171.876094 -91.269206 
L 179.992458 -92.977967 
L 188.108821 -92.944103 
L 196.225185 -92.864444 
L 204.341548 -92.663099 
L 212.457912 -92.746035 
L 220.574276 -91.764934 
L 228.690639 -91.908984 
L 236.807003 -91.964105 
L 244.923367 -91.298827 
L 253.03973 -90.829954 
L 261.156094 -91.404881 
L 269.272458 -91.647957 
L 277.388821 -91.276862 
L 285.505185 -91.793506 
L 293.621548 -91.673294 
L 301.737912 -91.705121 
L 309.854276 -91.196043 
L 317.970639 -91.081507 
L 326.087003 -90.738292 
L 334.203367 -90.474013 
L 342.31973 -90.174091 
L 350.436094 -90.687583 
L 358.552458 -90.894878 
L 366.668821 -90.682892 
L 374.785185 -90.749697 
L 382.901548 -90.53514 
L 391.017912 -90.545086 
L 399.134276 -90.18415 
L 407.250639 -90.182235 
L 415.367003 -90.183883 
L 423.483367 -90.097199 
L 431.59973 -90.28476 
L 439.716094 -89.968229 
L 447.832458 -90.0802 
L 455.948821 -90.191967 
L 464.065185 -90.086993 
L 472.181548 -90.048132 
L 480.297912 -90.06894 
L 480.297912 -92.440735 
L 480.297912 -92.440735 
L 472.181548 -92.422232 
L 464.065185 -92.472675 
L 455.948821 -92.599652 
L 447.832458 -92.513208 
L 439.716094 -92.413663 
L 431.59973 -92.76448 
L 423.483367 -92.615435 
L 415.367003 -92.715462 
L 407.250639 -92.769275 
L 399.134276 -92.79455 
L 391.017912 -93.177906 
L 382.901548 -93.2108 
L 374.785185 -93.469394 
L 366.668821 -93.438007 
L 358.552458 -93.673155 
L 350.436094 -93.48478 
L 342.31973 -93.011813 
L 334.203367 -93.343161 
L 326.087003 -93.62666 
L 317.970639 -94.009363 
L 309.854276 -94.183926 
L 301.737912 -94.771183 
L 293.621548 -94.771763 
L 285.505185 -94.927989 
L 277.388821 -94.511931 
L 269.272458 -94.971494 
L 261.156094 -94.800762 
L 253.03973 -94.344169 
L 244.923367 -94.891588 
L 236.807003 -95.63934 
L 228.690639 -95.624714 
L 220.574276 -95.584157 
L 212.457912 -96.699376 
L 204.341548 -96.759335 
L 196.225185 -97.134893 
L 188.108821 -97.36792 
L 179.992458 -97.477817 
L 171.876094 -96.040958 
L 163.75973 -96.269849 
L 155.643367 -97.630904 
L 147.527003 -98.851955 
L 139.410639 -99.794509 
L 131.294276 -105.874551 
L 123.177912 -110.076262 
L 115.061548 -109.810548 
L 106.945185 -109.776468 
L 98.828821 -101.941437 
L 90.712458 -104.462297 
L 82.596094 -304.309352 
L 74.47973 -318.225261 
z
" style="stroke: #00a6d6; stroke-opacity: 0.2"/>
    </defs>
    <g clip-path="url(#p7dc93d114c)">
     <use xlink:href="#m0af3b2814a" x="0" y="387.444894" style="fill: #00a6d6; fill-opacity: 0.2; stroke: #00a6d6; stroke-opacity: 0.2"/>
    </g>
   </g>
   <g id="matplotlib.axis_1">
    <g id="xtick_1">
     <g id="line2d_1">
      <path d="M 74.47973 333.819634 
L 74.47973 56.619634 
" clip-path="url(#p7dc93d114c)" style="fill: none; stroke: #b0b0b0; stroke-opacity: 0.4; stroke-width: 0.8; stroke-linecap: square"/>
     </g>
     <g id="line2d_2">
      <defs>
       <path id="md8c89705e8" d="M 0 0 
L 0 3.5 
" style="stroke: #000000; stroke-width: 0.8"/>
      </defs>
      <g>
       <use xlink:href="#md8c89705e8" x="74.47973" y="333.819634" style="stroke: #000000; stroke-width: 0.8"/>
      </g>
     </g>
     <g id="text_1">
      <!-- $\mathdefault{0}$ -->
      <g transform="translate(69.910683 354.65663) scale(0.2 -0.2)">
       <defs>
        <path id="CMR17-30" d="M 2688 2038 
C 2688 2430 2682 3099 2413 3613 
C 2176 4063 1798 4224 1466 4224 
C 1158 4224 768 4082 525 3620 
C 269 3137 243 2539 243 2038 
C 243 1671 250 1112 448 623 
C 723 -39 1216 -128 1466 -128 
C 1760 -128 2208 -7 2470 604 
C 2662 1048 2688 1568 2688 2038 
z
M 1466 -26 
C 1056 -26 813 328 723 816 
C 653 1196 653 1749 653 2109 
C 653 2604 653 3015 736 3407 
C 858 3954 1216 4121 1466 4121 
C 1728 4121 2067 3947 2189 3420 
C 2272 3054 2278 2623 2278 2109 
C 2278 1691 2278 1176 2202 797 
C 2067 96 1690 -26 1466 -26 
z
" transform="scale(0.015625)"/>
       </defs>
       <use xlink:href="#CMR17-30" transform="scale(0.996264)"/>
      </g>
     </g>
    </g>
    <g id="xtick_2">
     <g id="line2d_3">
      <path d="M 155.643367 333.819634 
L 155.643367 56.619634 
" clip-path="url(#p7dc93d114c)" style="fill: none; stroke: #b0b0b0; stroke-opacity: 0.4; stroke-width: 0.8; stroke-linecap: square"/>
     </g>
     <g id="line2d_4">
      <g>
       <use xlink:href="#md8c89705e8" x="155.643367" y="333.819634" style="stroke: #000000; stroke-width: 0.8"/>
      </g>
     </g>
     <g id="text_2">
      <!-- $\mathdefault{10}$ -->
      <g transform="translate(146.505271 354.65663) scale(0.2 -0.2)">
       <defs>
        <path id="CMR17-31" d="M 1702 4083 
C 1702 4217 1696 4224 1606 4224 
C 1357 3927 979 3833 621 3820 
C 602 3820 570 3820 563 3808 
C 557 3795 557 3782 557 3648 
C 755 3648 1088 3686 1344 3839 
L 1344 467 
C 1344 243 1331 166 781 166 
L 589 166 
L 589 0 
C 896 6 1216 12 1523 12 
C 1830 12 2150 6 2458 0 
L 2458 166 
L 2266 166 
C 1715 166 1702 236 1702 467 
L 1702 4083 
z
" transform="scale(0.015625)"/>
       </defs>
       <use xlink:href="#CMR17-31" transform="scale(0.996264)"/>
       <use xlink:href="#CMR17-30" transform="translate(45.690477 0) scale(0.996264)"/>
      </g>
     </g>
    </g>
    <g id="xtick_3">
     <g id="line2d_5">
      <path d="M 236.807003 333.819634 
L 236.807003 56.619634 
" clip-path="url(#p7dc93d114c)" style="fill: none; stroke: #b0b0b0; stroke-opacity: 0.4; stroke-width: 0.8; stroke-linecap: square"/>
     </g>
     <g id="line2d_6">
      <g>
       <use xlink:href="#md8c89705e8" x="236.807003" y="333.819634" style="stroke: #000000; stroke-width: 0.8"/>
      </g>
     </g>
     <g id="text_3">
      <!-- $\mathdefault{20}$ -->
      <g transform="translate(227.668908 354.65663) scale(0.2 -0.2)">
       <defs>
        <path id="CMR17-32" d="M 2669 990 
L 2554 990 
C 2490 537 2438 460 2413 422 
C 2381 371 1920 371 1830 371 
L 602 371 
C 832 620 1280 1073 1824 1596 
C 2214 1966 2669 2400 2669 3033 
C 2669 3788 2067 4224 1395 4224 
C 691 4224 262 3603 262 3027 
C 262 2777 448 2745 525 2745 
C 589 2745 781 2783 781 3007 
C 781 3206 614 3264 525 3264 
C 486 3264 448 3257 422 3244 
C 544 3788 915 4057 1306 4057 
C 1862 4057 2227 3616 2227 3033 
C 2227 2477 1901 1998 1536 1583 
L 262 147 
L 262 0 
L 2515 0 
L 2669 990 
z
" transform="scale(0.015625)"/>
       </defs>
       <use xlink:href="#CMR17-32" transform="scale(0.996264)"/>
       <use xlink:href="#CMR17-30" transform="translate(45.690477 0) scale(0.996264)"/>
      </g>
     </g>
    </g>
    <g id="xtick_4">
     <g id="line2d_7">
      <path d="M 317.970639 333.819634 
L 317.970639 56.619634 
" clip-path="url(#p7dc93d114c)" style="fill: none; stroke: #b0b0b0; stroke-opacity: 0.4; stroke-width: 0.8; stroke-linecap: square"/>
     </g>
     <g id="line2d_8">
      <g>
       <use xlink:href="#md8c89705e8" x="317.970639" y="333.819634" style="stroke: #000000; stroke-width: 0.8"/>
      </g>
     </g>
     <g id="text_4">
      <!-- $\mathdefault{30}$ -->
      <g transform="translate(308.832544 354.65663) scale(0.2 -0.2)">
       <defs>
        <path id="CMR17-33" d="M 1414 2176 
C 1984 2176 2234 1673 2234 1094 
C 2234 322 1824 25 1453 25 
C 1114 25 563 193 390 691 
C 422 678 454 678 486 678 
C 640 678 755 780 755 947 
C 755 1132 614 1216 486 1216 
C 378 1216 211 1164 211 927 
C 211 335 787 -128 1466 -128 
C 2176 -128 2720 432 2720 1087 
C 2720 1718 2208 2176 1600 2246 
C 2086 2347 2554 2776 2554 3353 
C 2554 3856 2048 4224 1472 4224 
C 890 4224 378 3862 378 3347 
C 378 3123 544 3084 627 3084 
C 762 3084 877 3167 877 3334 
C 877 3500 762 3584 627 3584 
C 602 3584 570 3584 544 3571 
C 730 3999 1235 4076 1459 4076 
C 1683 4076 2106 3966 2106 3347 
C 2106 3167 2080 2851 1862 2574 
C 1670 2329 1453 2316 1242 2297 
C 1210 2297 1062 2284 1037 2284 
C 992 2278 966 2272 966 2227 
C 966 2182 973 2176 1101 2176 
L 1414 2176 
z
" transform="scale(0.015625)"/>
       </defs>
       <use xlink:href="#CMR17-33" transform="scale(0.996264)"/>
       <use xlink:href="#CMR17-30" transform="translate(45.690477 0) scale(0.996264)"/>
      </g>
     </g>
    </g>
    <g id="xtick_5">
     <g id="line2d_9">
      <path d="M 399.134276 333.819634 
L 399.134276 56.619634 
" clip-path="url(#p7dc93d114c)" style="fill: none; stroke: #b0b0b0; stroke-opacity: 0.4; stroke-width: 0.8; stroke-linecap: square"/>
     </g>
     <g id="line2d_10">
      <g>
       <use xlink:href="#md8c89705e8" x="399.134276" y="333.819634" style="stroke: #000000; stroke-width: 0.8"/>
      </g>
     </g>
     <g id="text_5">
      <!-- $\mathdefault{40}$ -->
      <g transform="translate(389.99618 354.65663) scale(0.2 -0.2)">
       <defs>
        <path id="CMR17-34" d="M 2150 4147 
C 2150 4281 2144 4288 2029 4288 
L 128 1254 
L 128 1088 
L 1779 1088 
L 1779 460 
C 1779 230 1766 166 1318 166 
L 1197 166 
L 1197 0 
C 1402 12 1747 12 1965 12 
C 2182 12 2528 12 2733 0 
L 2733 166 
L 2611 166 
C 2163 166 2150 230 2150 460 
L 2150 1088 
L 2803 1088 
L 2803 1254 
L 2150 1254 
L 2150 4147 
z
M 1798 3723 
L 1798 1254 
L 256 1254 
L 1798 3723 
z
" transform="scale(0.015625)"/>
       </defs>
       <use xlink:href="#CMR17-34" transform="scale(0.996264)"/>
       <use xlink:href="#CMR17-30" transform="translate(45.690477 0) scale(0.996264)"/>
      </g>
     </g>
    </g>
    <g id="xtick_6">
     <g id="line2d_11">
      <path d="M 480.297912 333.819634 
L 480.297912 56.619634 
" clip-path="url(#p7dc93d114c)" style="fill: none; stroke: #b0b0b0; stroke-opacity: 0.4; stroke-width: 0.8; stroke-linecap: square"/>
     </g>
     <g id="line2d_12">
      <g>
       <use xlink:href="#md8c89705e8" x="480.297912" y="333.819634" style="stroke: #000000; stroke-width: 0.8"/>
      </g>
     </g>
     <g id="text_6">
      <!-- $\mathdefault{50}$ -->
      <g transform="translate(471.159817 354.65663) scale(0.2 -0.2)">
       <defs>
        <path id="CMR17-35" d="M 730 3750 
C 794 3724 1056 3641 1325 3641 
C 1920 3641 2246 3961 2432 4140 
C 2432 4191 2432 4224 2394 4224 
C 2387 4224 2374 4224 2323 4198 
C 2099 4102 1837 4032 1517 4032 
C 1325 4032 1037 4055 723 4191 
C 653 4224 640 4224 634 4224 
C 602 4224 595 4217 595 4090 
L 595 2231 
C 595 2113 595 2080 659 2080 
C 691 2080 704 2093 736 2139 
C 941 2435 1222 2560 1542 2560 
C 1766 2560 2246 2415 2246 1293 
C 2246 1087 2246 716 2054 422 
C 1894 159 1645 25 1370 25 
C 947 25 518 319 403 812 
C 429 806 480 793 506 793 
C 589 793 749 838 749 1036 
C 749 1209 627 1280 506 1280 
C 358 1280 262 1190 262 1011 
C 262 454 704 -128 1382 -128 
C 2042 -128 2669 441 2669 1267 
C 2669 2054 2170 2662 1549 2662 
C 1222 2662 947 2540 730 2304 
L 730 3750 
z
" transform="scale(0.015625)"/>
       </defs>
       <use xlink:href="#CMR17-35" transform="scale(0.996264)"/>
       <use xlink:href="#CMR17-30" transform="translate(45.690477 0) scale(0.996264)"/>
      </g>
     </g>
    </g>
    <g id="text_7">
     <!-- Assimilation steps -->
     <g transform="translate(207.635785 376.369261) scale(0.2 -0.2)">
      <defs>
       <path id="CMSS17-41" d="M 2272 4416 
L 1722 4416 
L 166 0 
L 653 0 
L 1101 1280 
L 2816 1280 
L 3270 0 
L 3827 0 
L 2272 4416 
z
M 2694 1638 
L 1222 1638 
C 1530 2530 1914 3638 1958 3924 
L 1965 3924 
C 2010 3663 2138 3281 2246 2956 
L 2694 1638 
z
" transform="scale(0.015625)"/>
       <path id="CMSS17-73" d="M 2061 2623 
C 1683 2803 1389 2816 1197 2816 
C 742 2816 198 2655 198 2009 
C 198 1363 902 1222 1094 1183 
C 1389 1126 1715 1062 1715 742 
C 1715 339 1254 339 1171 339 
C 915 339 563 409 243 639 
L 166 211 
C 531 0 883 -64 1178 -64 
C 1965 -64 2163 416 2163 780 
C 2163 1094 1984 1305 1862 1401 
C 1651 1567 1574 1587 1050 1695 
C 960 1708 646 1779 646 2067 
C 646 2431 1050 2431 1139 2431 
C 1555 2431 1811 2303 1984 2207 
L 2061 2623 
z
" transform="scale(0.015625)"/>
       <path id="CMSS17-69" d="M 979 4224 
L 442 4224 
L 442 3686 
L 979 3686 
L 979 4224 
z
M 947 2752 
L 474 2752 
L 474 0 
L 947 0 
L 947 2752 
z
" transform="scale(0.015625)"/>
       <path id="CMSS17-6d" d="M 4288 1878 
C 4288 2309 4179 2816 3462 2816 
C 2982 2816 2694 2515 2566 2328 
C 2451 2668 2182 2816 1798 2816 
C 1363 2816 1088 2566 941 2386 
L 941 2783 
L 474 2783 
L 474 0 
L 960 0 
L 960 1556 
C 960 1936 1101 2425 1555 2425 
C 2138 2425 2138 2013 2138 1826 
L 2138 0 
L 2624 0 
L 2624 1556 
C 2624 1936 2765 2425 3219 2425 
C 3802 2425 3802 2013 3802 1826 
L 3802 0 
L 4288 0 
L 4288 1878 
z
" transform="scale(0.015625)"/>
       <path id="CMSS17-6c" d="M 947 4416 
L 474 4416 
L 474 0 
L 947 0 
L 947 4416 
z
" transform="scale(0.015625)"/>
       <path id="CMSS17-61" d="M 2406 1789 
C 2406 2399 1978 2816 1402 2816 
C 1120 2816 813 2764 461 2559 
L 499 2133 
C 659 2250 934 2438 1395 2438 
C 1722 2438 1920 2185 1920 1782 
L 1920 1536 
C 896 1504 256 1209 256 711 
C 256 452 416 -64 947 -64 
C 1043 -64 1562 -52 1933 224 
L 1933 -13 
L 2406 -13 
L 2406 1789 
z
M 1920 824 
C 1920 711 1920 559 1728 446 
C 1562 339 1350 326 1261 326 
C 941 326 723 503 723 723 
C 723 1165 1722 1209 1920 1216 
L 1920 824 
z
" transform="scale(0.015625)"/>
       <path id="CMSS17-74" d="M 1069 2380 
L 1901 2380 
L 1901 2752 
L 1069 2752 
L 1069 3520 
L 614 3520 
L 614 2752 
L 109 2752 
L 109 2380 
L 602 2380 
L 602 751 
C 602 384 685 -64 1107 -64 
C 1427 -64 1722 25 2003 172 
L 1901 551 
C 1747 416 1562 339 1363 339 
C 1082 339 1069 699 1069 860 
L 1069 2380 
z
" transform="scale(0.015625)"/>
       <path id="CMSS17-6f" d="M 2829 1356 
C 2829 2175 2221 2816 1504 2816 
C 768 2816 173 2156 173 1356 
C 173 544 787 -64 1498 -64 
C 2227 -64 2829 563 2829 1356 
z
M 1504 339 
C 1050 339 659 710 659 1407 
C 659 2150 1114 2425 1498 2425 
C 1914 2425 2342 2124 2342 1407 
C 2342 684 1926 339 1504 339 
z
" transform="scale(0.015625)"/>
       <path id="CMSS17-6e" d="M 2618 1878 
C 2618 2283 2522 2816 1798 2816 
C 1389 2816 1120 2604 941 2386 
L 941 2783 
L 474 2783 
L 474 0 
L 960 0 
L 960 1556 
C 960 1962 1114 2425 1549 2425 
C 2112 2425 2131 2045 2131 1826 
L 2131 0 
L 2618 0 
L 2618 1878 
z
" transform="scale(0.015625)"/>
       <path id="CMSS17-65" d="M 2502 1375 
C 2502 1587 2490 2001 2285 2347 
C 2061 2713 1696 2816 1421 2816 
C 755 2816 192 2184 192 1363 
C 192 579 774 -64 1510 -64 
C 1798 -64 2150 19 2470 249 
C 2470 275 2458 414 2451 421 
C 2451 433 2432 629 2432 655 
C 2125 408 1773 326 1517 326 
C 1107 326 666 667 646 1375 
L 2502 1375 
z
M 698 1728 
C 781 2086 1062 2425 1421 2425 
C 1517 2425 1965 2412 2080 1728 
L 698 1728 
z
" transform="scale(0.015625)"/>
       <path id="CMSS17-70" d="M 966 275 
C 1178 70 1466 -64 1773 -64 
C 2368 -64 2880 553 2880 1382 
C 2880 2147 2496 2816 1946 2816 
C 1626 2816 1242 2700 954 2470 
L 954 2764 
L 480 2764 
L 480 -1280 
L 966 -1280 
L 966 275 
z
M 966 2088 
C 1018 2166 1235 2412 1587 2412 
C 2035 2412 2394 1946 2394 1382 
C 2394 741 1958 326 1530 326 
C 1402 326 1267 358 1139 468 
C 966 624 966 721 966 812 
L 966 2088 
z
" transform="scale(0.015625)"/>
      </defs>
      <use xlink:href="#CMSS17-41" transform="scale(0.996264)"/>
      <use xlink:href="#CMSS17-73" transform="translate(62.217855 0) scale(0.996264)"/>
      <use xlink:href="#CMSS17-73" transform="translate(98.131397 0) scale(0.996264)"/>
      <use xlink:href="#CMSS17-69" transform="translate(134.044939 0) scale(0.996264)"/>
      <use xlink:href="#CMSS17-6d" transform="translate(156.225662 0) scale(0.996264)"/>
      <use xlink:href="#CMSS17-69" transform="translate(230.454916 0) scale(0.996264)"/>
      <use xlink:href="#CMSS17-6c" transform="translate(252.635639 0) scale(0.996264)"/>
      <use xlink:href="#CMSS17-61" transform="translate(274.816362 0) scale(0.996264)"/>
      <use xlink:href="#CMSS17-74" transform="translate(319.738283 0) scale(0.996264)"/>
      <use xlink:href="#CMSS17-69" transform="translate(353.56985 0) scale(0.996264)"/>
      <use xlink:href="#CMSS17-6f" transform="translate(375.750573 0) scale(0.996264)"/>
      <use xlink:href="#CMSS17-6e" transform="translate(422.594196 0) scale(0.996264)"/>
      <use xlink:href="#CMSS17-73" transform="translate(502.028252 0) scale(0.996264)"/>
      <use xlink:href="#CMSS17-74" transform="translate(537.941794 0) scale(0.996264)"/>
      <use xlink:href="#CMSS17-65" transform="translate(571.773361 0) scale(0.996264)"/>
      <use xlink:href="#CMSS17-70" transform="translate(613.412183 0) scale(0.996264)"/>
      <use xlink:href="#CMSS17-73" transform="translate(661.617126 0) scale(0.996264)"/>
     </g>
    </g>
   </g>
   <g id="matplotlib.axis_2">
    <g id="ytick_1">
     <g id="line2d_13">
      <path d="M 54.188821 295.407725 
L 500.588821 295.407725 
" clip-path="url(#p7dc93d114c)" style="fill: none; stroke: #b0b0b0; stroke-opacity: 0.4; stroke-width: 0.8; stroke-linecap: square"/>
     </g>
     <g id="line2d_14">
      <defs>
       <path id="m7d021ada60" d="M 0 0 
L -3.5 0 
" style="stroke: #000000; stroke-width: 0.8"/>
      </defs>
      <g>
       <use xlink:href="#m7d021ada60" x="54.188821" y="295.407725" style="stroke: #000000; stroke-width: 0.8"/>
      </g>
     </g>
     <g id="text_8">
      <!-- $\mathdefault{8}$ -->
      <g transform="translate(38.050726 302.326223) scale(0.2 -0.2)">
       <defs>
        <path id="CMR17-38" d="M 1741 2289 
C 2144 2494 2554 2803 2554 3298 
C 2554 3884 1990 4224 1472 4224 
C 890 4224 378 3800 378 3215 
C 378 3054 416 2777 666 2533 
C 730 2469 998 2276 1171 2154 
C 883 2006 211 1652 211 945 
C 211 282 838 -128 1459 -128 
C 2144 -128 2720 366 2720 1022 
C 2720 1607 2330 1877 2074 2051 
L 1741 2289 
z
M 902 2855 
C 851 2887 595 3086 595 3388 
C 595 3781 998 4076 1459 4076 
C 1965 4076 2336 3716 2336 3298 
C 2336 2700 1670 2359 1638 2359 
C 1632 2359 1626 2359 1574 2398 
L 902 2855 
z
M 2080 1536 
C 2176 1466 2483 1253 2483 861 
C 2483 385 2010 25 1472 25 
C 890 25 448 443 448 951 
C 448 1459 838 1884 1280 2083 
L 2080 1536 
z
" transform="scale(0.015625)"/>
       </defs>
       <use xlink:href="#CMR17-38" transform="scale(0.996264)"/>
      </g>
     </g>
    </g>
    <g id="ytick_2">
     <g id="line2d_15">
      <path d="M 54.188821 217.895932 
L 500.588821 217.895932 
" clip-path="url(#p7dc93d114c)" style="fill: none; stroke: #b0b0b0; stroke-opacity: 0.4; stroke-width: 0.8; stroke-linecap: square"/>
     </g>
     <g id="line2d_16">
      <g>
       <use xlink:href="#m7d021ada60" x="54.188821" y="217.895932" style="stroke: #000000; stroke-width: 0.8"/>
      </g>
     </g>
     <g id="text_9">
      <!-- $\mathdefault{10}$ -->
      <g transform="translate(28.91263 224.81443) scale(0.2 -0.2)">
       <use xlink:href="#CMR17-31" transform="scale(0.996264)"/>
       <use xlink:href="#CMR17-30" transform="translate(45.690477 0) scale(0.996264)"/>
      </g>
     </g>
    </g>
    <g id="ytick_3">
     <g id="line2d_17">
      <path d="M 54.188821 140.384138 
L 500.588821 140.384138 
" clip-path="url(#p7dc93d114c)" style="fill: none; stroke: #b0b0b0; stroke-opacity: 0.4; stroke-width: 0.8; stroke-linecap: square"/>
     </g>
     <g id="line2d_18">
      <g>
       <use xlink:href="#m7d021ada60" x="54.188821" y="140.384138" style="stroke: #000000; stroke-width: 0.8"/>
      </g>
     </g>
     <g id="text_10">
      <!-- $\mathdefault{12}$ -->
      <g transform="translate(28.91263 147.302637) scale(0.2 -0.2)">
       <use xlink:href="#CMR17-31" transform="scale(0.996264)"/>
       <use xlink:href="#CMR17-32" transform="translate(45.690477 0) scale(0.996264)"/>
      </g>
     </g>
    </g>
    <g id="ytick_4">
     <g id="line2d_19">
      <path d="M 54.188821 62.872345 
L 500.588821 62.872345 
" clip-path="url(#p7dc93d114c)" style="fill: none; stroke: #b0b0b0; stroke-opacity: 0.4; stroke-width: 0.8; stroke-linecap: square"/>
     </g>
     <g id="line2d_20">
      <g>
       <use xlink:href="#m7d021ada60" x="54.188821" y="62.872345" style="stroke: #000000; stroke-width: 0.8"/>
      </g>
     </g>
     <g id="text_11">
      <!-- $\mathdefault{14}$ -->
      <g transform="translate(28.91263 69.790843) scale(0.2 -0.2)">
       <use xlink:href="#CMR17-31" transform="scale(0.996264)"/>
       <use xlink:href="#CMR17-34" transform="translate(45.690477 0) scale(0.996264)"/>
      </g>
     </g>
    </g>
    <g id="text_12">
     <!-- $F+b$ -->
     <g transform="translate(21.036997 218.63617) rotate(-90) scale(0.2 -0.2)">
      <defs>
       <path id="CMMI12-46" d="M 1901 2054 
L 2515 2054 
C 3002 2054 3040 1947 3040 1764 
C 3040 1683 3027 1595 2995 1456 
C 2982 1431 2976 1399 2976 1387 
C 2976 1343 3002 1318 3046 1318 
C 3098 1318 3104 1343 3130 1444 
L 3501 2929 
C 3501 2955 3482 2993 3437 2993 
C 3379 2993 3373 2968 3347 2858 
C 3213 2375 3085 2240 2528 2240 
L 1946 2240 
L 2362 3908 
C 2419 4134 2432 4153 2694 4153 
L 3552 4153 
C 4352 4153 4467 3915 4467 3457 
C 4467 3419 4467 3277 4448 3109 
C 4442 3084 4429 3000 4429 2974 
C 4429 2922 4461 2903 4499 2903 
C 4544 2903 4570 2929 4582 3045 
L 4717 4172 
C 4717 4191 4730 4255 4730 4268 
C 4730 4339 4672 4339 4557 4339 
L 1523 4339 
C 1402 4339 1338 4339 1338 4223 
C 1338 4153 1382 4153 1491 4153 
C 1888 4153 1888 4108 1888 4037 
C 1888 4005 1882 3979 1862 3908 
L 998 468 
C 941 248 928 185 480 185 
C 358 185 294 185 294 70 
C 294 0 352 0 390 0 
C 512 0 640 12 762 12 
L 1594 12 
C 1734 12 1888 0 2029 0 
C 2086 0 2163 0 2163 115 
C 2163 185 2125 185 1984 185 
C 1478 185 1466 229 1466 324 
C 1466 355 1478 405 1491 449 
L 1901 2054 
z
" transform="scale(0.015625)"/>
       <path id="CMR17-2b" d="M 2413 1472 
L 4109 1472 
C 4198 1472 4307 1472 4307 1580 
C 4307 1696 4205 1696 4109 1696 
L 2413 1696 
L 2413 3385 
C 2413 3475 2413 3584 2304 3584 
C 2189 3584 2189 3481 2189 3385 
L 2189 1696 
L 493 1696 
C 403 1696 294 1696 294 1587 
C 294 1472 397 1472 493 1472 
L 2189 1472 
L 2189 -194 
C 2189 -282 2189 -391 2298 -391 
C 2413 -391 2413 -289 2413 -194 
L 2413 1472 
z
" transform="scale(0.015625)"/>
       <path id="CMMI12-62" d="M 1478 4255 
C 1485 4281 1498 4319 1498 4351 
C 1498 4416 1434 4416 1421 4416 
C 1414 4416 1184 4396 1069 4383 
C 960 4377 864 4364 749 4358 
C 595 4345 550 4339 550 4223 
C 550 4159 614 4159 678 4159 
C 1005 4159 1005 4103 1005 4040 
C 1005 3995 954 3812 928 3699 
L 774 3093 
C 710 2841 346 1392 320 1277 
C 288 1117 288 1008 288 925 
C 288 274 653 -64 1069 -64 
C 1811 -64 2579 887 2579 1813 
C 2579 2400 2246 2816 1766 2816 
C 1434 2816 1133 2541 1011 2413 
L 1478 4255 
z
M 1075 64 
C 870 64 646 217 646 715 
C 646 925 666 1047 781 1494 
C 800 1577 902 1985 928 2068 
C 941 2119 1318 2687 1754 2687 
C 2035 2687 2163 2407 2163 2075 
C 2163 1768 1984 1047 1824 715 
C 1664 370 1370 64 1075 64 
z
" transform="scale(0.015625)"/>
      </defs>
      <use xlink:href="#CMMI12-46" transform="scale(0.996264)"/>
      <use xlink:href="#CMR17-2b" transform="translate(98.836 0) scale(0.996264)"/>
      <use xlink:href="#CMMI12-62" transform="translate(192.689995 0) scale(0.996264)"/>
     </g>
    </g>
   </g>
   <g id="line2d_21">
    <path d="M 74.47973 178.400189 
L 82.596094 178.400189 
L 82.596094 191.670943 
L 90.712458 191.670943 
L 90.712458 302.101116 
L 98.828821 302.101116 
L 98.828821 297.803574 
L 106.945185 297.803574 
L 106.945185 288.311072 
L 115.061548 288.311072 
L 115.061548 286.025972 
L 123.177912 286.025972 
L 123.177912 283.759273 
L 131.294276 283.759273 
L 131.294276 286.423738 
L 139.410639 286.423738 
L 139.410639 291.423104 
L 147.527003 291.423104 
L 147.527003 291.89422 
L 155.643367 291.89422 
L 155.643367 292.517748 
L 163.75973 292.517748 
L 163.75973 293.63091 
L 171.876094 293.63091 
L 171.876094 293.789813 
L 179.992458 293.789813 
L 179.992458 292.217002 
L 188.108821 292.217002 
L 188.108821 292.288883 
L 196.225185 292.288883 
L 196.225185 292.445226 
L 204.341548 292.445226 
L 204.341548 292.733678 
L 212.457912 292.733678 
L 212.457912 292.722189 
L 220.574276 292.722189 
L 220.574276 293.770349 
L 228.690639 293.770349 
L 228.690639 293.678046 
L 236.807003 293.678046 
L 236.807003 293.643172 
L 244.923367 293.643172 
L 244.923367 294.349687 
L 253.03973 294.349687 
L 253.03973 294.857833 
L 261.156094 294.857833 
L 261.156094 294.342073 
L 269.272458 294.342073 
L 269.272458 294.135169 
L 277.388821 294.135169 
L 277.388821 294.550498 
L 285.505185 294.550498 
L 285.505185 294.084147 
L 293.621548 294.084147 
L 293.621548 294.222366 
L 301.737912 294.222366 
L 301.737912 294.206743 
L 309.854276 294.206743 
L 309.854276 294.75491 
L 317.970639 294.75491 
L 317.970639 294.899459 
L 326.087003 294.899459 
L 326.087003 295.262419 
L 334.203367 295.262419 
L 334.203367 295.536307 
L 342.31973 295.536307 
L 342.31973 295.851943 
L 350.436094 295.851943 
L 350.436094 295.358713 
L 358.552458 295.358713 
L 358.552458 295.160878 
L 366.668821 295.160878 
L 366.668821 295.384445 
L 374.785185 295.384445 
L 374.785185 295.335349 
L 382.901548 295.335349 
L 382.901548 295.571925 
L 391.017912 295.571925 
L 391.017912 295.583398 
L 399.134276 295.583398 
L 399.134276 295.955545 
L 407.250639 295.955545 
L 407.250639 295.96914 
L 415.367003 295.96914 
L 415.367003 295.995222 
L 423.483367 295.995222 
L 423.483367 296.088578 
L 431.59973 296.088578 
L 431.59973 295.920275 
L 439.716094 295.920275 
L 439.716094 296.253948 
L 447.832458 296.253948 
L 447.832458 296.148191 
L 455.948821 296.148191 
L 455.948821 296.049085 
L 464.065185 296.049085 
L 464.065185 296.16506 
L 472.181548 296.16506 
L 472.181548 296.209712 
L 480.297912 296.209712 
L 480.297912 296.190057 
" clip-path="url(#p7dc93d114c)" style="fill: none; stroke: #00a6d6; stroke-width: 1.5; stroke-linecap: square"/>
    <defs>
     <path id="m49f4ff7a06" d="M 0 2.5 
C 0.663008 2.5 1.29895 2.236584 1.767767 1.767767 
C 2.236584 1.29895 2.5 0.663008 2.5 0 
C 2.5 -0.663008 2.236584 -1.29895 1.767767 -1.767767 
C 1.29895 -2.236584 0.663008 -2.5 0 -2.5 
C -0.663008 -2.5 -1.29895 -2.236584 -1.767767 -1.767767 
C -2.236584 -1.29895 -2.5 -0.663008 -2.5 0 
C -2.5 0.663008 -2.236584 1.29895 -1.767767 1.767767 
C -1.29895 2.236584 -0.663008 2.5 0 2.5 
z
" style="stroke: #00a6d6"/>
    </defs>
    <g clip-path="url(#p7dc93d114c)">
     <use xlink:href="#m49f4ff7a06" x="74.47973" y="178.400189" style="fill: #00a6d6; stroke: #00a6d6"/>
     <use xlink:href="#m49f4ff7a06" x="82.596094" y="191.670943" style="fill: #00a6d6; stroke: #00a6d6"/>
     <use xlink:href="#m49f4ff7a06" x="90.712458" y="302.101116" style="fill: #00a6d6; stroke: #00a6d6"/>
     <use xlink:href="#m49f4ff7a06" x="98.828821" y="297.803574" style="fill: #00a6d6; stroke: #00a6d6"/>
     <use xlink:href="#m49f4ff7a06" x="106.945185" y="288.311072" style="fill: #00a6d6; stroke: #00a6d6"/>
     <use xlink:href="#m49f4ff7a06" x="115.061548" y="286.025972" style="fill: #00a6d6; stroke: #00a6d6"/>
     <use xlink:href="#m49f4ff7a06" x="123.177912" y="283.759273" style="fill: #00a6d6; stroke: #00a6d6"/>
     <use xlink:href="#m49f4ff7a06" x="131.294276" y="286.423738" style="fill: #00a6d6; stroke: #00a6d6"/>
     <use xlink:href="#m49f4ff7a06" x="139.410639" y="291.423104" style="fill: #00a6d6; stroke: #00a6d6"/>
     <use xlink:href="#m49f4ff7a06" x="147.527003" y="291.89422" style="fill: #00a6d6; stroke: #00a6d6"/>
     <use xlink:href="#m49f4ff7a06" x="155.643367" y="292.517748" style="fill: #00a6d6; stroke: #00a6d6"/>
     <use xlink:href="#m49f4ff7a06" x="163.75973" y="293.63091" style="fill: #00a6d6; stroke: #00a6d6"/>
     <use xlink:href="#m49f4ff7a06" x="171.876094" y="293.789813" style="fill: #00a6d6; stroke: #00a6d6"/>
     <use xlink:href="#m49f4ff7a06" x="179.992458" y="292.217002" style="fill: #00a6d6; stroke: #00a6d6"/>
     <use xlink:href="#m49f4ff7a06" x="188.108821" y="292.288883" style="fill: #00a6d6; stroke: #00a6d6"/>
     <use xlink:href="#m49f4ff7a06" x="196.225185" y="292.445226" style="fill: #00a6d6; stroke: #00a6d6"/>
     <use xlink:href="#m49f4ff7a06" x="204.341548" y="292.733678" style="fill: #00a6d6; stroke: #00a6d6"/>
     <use xlink:href="#m49f4ff7a06" x="212.457912" y="292.722189" style="fill: #00a6d6; stroke: #00a6d6"/>
     <use xlink:href="#m49f4ff7a06" x="220.574276" y="293.770349" style="fill: #00a6d6; stroke: #00a6d6"/>
     <use xlink:href="#m49f4ff7a06" x="228.690639" y="293.678046" style="fill: #00a6d6; stroke: #00a6d6"/>
     <use xlink:href="#m49f4ff7a06" x="236.807003" y="293.643172" style="fill: #00a6d6; stroke: #00a6d6"/>
     <use xlink:href="#m49f4ff7a06" x="244.923367" y="294.349687" style="fill: #00a6d6; stroke: #00a6d6"/>
     <use xlink:href="#m49f4ff7a06" x="253.03973" y="294.857833" style="fill: #00a6d6; stroke: #00a6d6"/>
     <use xlink:href="#m49f4ff7a06" x="261.156094" y="294.342073" style="fill: #00a6d6; stroke: #00a6d6"/>
     <use xlink:href="#m49f4ff7a06" x="269.272458" y="294.135169" style="fill: #00a6d6; stroke: #00a6d6"/>
     <use xlink:href="#m49f4ff7a06" x="277.388821" y="294.550498" style="fill: #00a6d6; stroke: #00a6d6"/>
     <use xlink:href="#m49f4ff7a06" x="285.505185" y="294.084147" style="fill: #00a6d6; stroke: #00a6d6"/>
     <use xlink:href="#m49f4ff7a06" x="293.621548" y="294.222366" style="fill: #00a6d6; stroke: #00a6d6"/>
     <use xlink:href="#m49f4ff7a06" x="301.737912" y="294.206743" style="fill: #00a6d6; stroke: #00a6d6"/>
     <use xlink:href="#m49f4ff7a06" x="309.854276" y="294.75491" style="fill: #00a6d6; stroke: #00a6d6"/>
     <use xlink:href="#m49f4ff7a06" x="317.970639" y="294.899459" style="fill: #00a6d6; stroke: #00a6d6"/>
     <use xlink:href="#m49f4ff7a06" x="326.087003" y="295.262419" style="fill: #00a6d6; stroke: #00a6d6"/>
     <use xlink:href="#m49f4ff7a06" x="334.203367" y="295.536307" style="fill: #00a6d6; stroke: #00a6d6"/>
     <use xlink:href="#m49f4ff7a06" x="342.31973" y="295.851943" style="fill: #00a6d6; stroke: #00a6d6"/>
     <use xlink:href="#m49f4ff7a06" x="350.436094" y="295.358713" style="fill: #00a6d6; stroke: #00a6d6"/>
     <use xlink:href="#m49f4ff7a06" x="358.552458" y="295.160878" style="fill: #00a6d6; stroke: #00a6d6"/>
     <use xlink:href="#m49f4ff7a06" x="366.668821" y="295.384445" style="fill: #00a6d6; stroke: #00a6d6"/>
     <use xlink:href="#m49f4ff7a06" x="374.785185" y="295.335349" style="fill: #00a6d6; stroke: #00a6d6"/>
     <use xlink:href="#m49f4ff7a06" x="382.901548" y="295.571925" style="fill: #00a6d6; stroke: #00a6d6"/>
     <use xlink:href="#m49f4ff7a06" x="391.017912" y="295.583398" style="fill: #00a6d6; stroke: #00a6d6"/>
     <use xlink:href="#m49f4ff7a06" x="399.134276" y="295.955545" style="fill: #00a6d6; stroke: #00a6d6"/>
     <use xlink:href="#m49f4ff7a06" x="407.250639" y="295.96914" style="fill: #00a6d6; stroke: #00a6d6"/>
     <use xlink:href="#m49f4ff7a06" x="415.367003" y="295.995222" style="fill: #00a6d6; stroke: #00a6d6"/>
     <use xlink:href="#m49f4ff7a06" x="423.483367" y="296.088578" style="fill: #00a6d6; stroke: #00a6d6"/>
     <use xlink:href="#m49f4ff7a06" x="431.59973" y="295.920275" style="fill: #00a6d6; stroke: #00a6d6"/>
     <use xlink:href="#m49f4ff7a06" x="439.716094" y="296.253948" style="fill: #00a6d6; stroke: #00a6d6"/>
     <use xlink:href="#m49f4ff7a06" x="447.832458" y="296.148191" style="fill: #00a6d6; stroke: #00a6d6"/>
     <use xlink:href="#m49f4ff7a06" x="455.948821" y="296.049085" style="fill: #00a6d6; stroke: #00a6d6"/>
     <use xlink:href="#m49f4ff7a06" x="464.065185" y="296.16506" style="fill: #00a6d6; stroke: #00a6d6"/>
     <use xlink:href="#m49f4ff7a06" x="472.181548" y="296.209712" style="fill: #00a6d6; stroke: #00a6d6"/>
     <use xlink:href="#m49f4ff7a06" x="480.297912" y="296.190057" style="fill: #00a6d6; stroke: #00a6d6"/>
    </g>
   </g>
   <g id="line2d_22">
    <path d="M 54.188821 295.407725 
L 500.588821 295.407725 
" clip-path="url(#p7dc93d114c)" style="fill: none; stroke-dasharray: 1.5,2.475; stroke-dashoffset: 0; stroke: #00a6d6; stroke-opacity: 0.8; stroke-width: 1.5"/>
   </g>
   <g id="patch_3">
    <path d="M 54.188821 333.819634 
L 54.188821 56.619634 
" style="fill: none; stroke: #000000; stroke-width: 0.8; stroke-linejoin: miter; stroke-linecap: square"/>
   </g>
   <g id="patch_4">
    <path d="M 500.588821 333.819634 
L 500.588821 56.619634 
" style="fill: none; stroke: #000000; stroke-width: 0.8; stroke-linejoin: miter; stroke-linecap: square"/>
   </g>
   <g id="patch_5">
    <path d="M 54.188821 333.819634 
L 500.588821 333.819634 
" style="fill: none; stroke: #000000; stroke-width: 0.8; stroke-linejoin: miter; stroke-linecap: square"/>
   </g>
   <g id="patch_6">
    <path d="M 54.188821 56.619634 
L 500.588821 56.619634 
" style="fill: none; stroke: #000000; stroke-width: 0.8; stroke-linejoin: miter; stroke-linecap: square"/>
   </g>
   <g id="legend_1">
    <g id="patch_7">
     <path d="M 378.956149 41.075634 
L 486.588821 41.075634 
Q 490.588821 41.075634 490.588821 37.075634 
L 490.588821 11.2 
Q 490.588821 7.2 486.588821 7.2 
L 378.956149 7.2 
Q 374.956149 7.2 374.956149 11.2 
L 374.956149 37.075634 
Q 374.956149 41.075634 378.956149 41.075634 
z
" style="fill: #ffffff; opacity: 0.8; stroke: #cccccc; stroke-linejoin: miter"/>
    </g>
    <g id="line2d_23">
     <path d="M 382.956149 22.2 
L 402.956149 22.2 
L 422.956149 22.2 
" style="fill: none; stroke-dasharray: 1.5,2.475; stroke-dashoffset: 0; stroke: #00a6d6; stroke-opacity: 0.8; stroke-width: 1.5"/>
    </g>
    <g id="text_13">
     <!-- Truth -->
     <g transform="translate(438.956149 29.2) scale(0.2 -0.2)">
      <defs>
       <path id="CMSS17-54" d="M 2317 3987 
L 2848 3987 
C 2925 3987 3002 3980 3078 3980 
L 3878 3980 
L 3878 4396 
L 218 4396 
L 218 3980 
L 1018 3980 
C 1094 3980 1171 3987 1248 3987 
L 1779 3987 
L 1779 0 
L 2317 0 
L 2317 3987 
z
" transform="scale(0.015625)"/>
       <path id="CMSS17-72" d="M 954 1369 
C 954 1974 1395 2379 1958 2392 
L 1958 2816 
C 1549 2809 1165 2604 934 2270 
L 934 2783 
L 480 2783 
L 480 0 
L 954 0 
L 954 1369 
z
" transform="scale(0.015625)"/>
       <path id="CMSS17-75" d="M 2618 2752 
L 2131 2752 
L 2131 976 
C 2131 500 1786 307 1421 307 
C 998 307 960 448 960 712 
L 960 2752 
L 474 2752 
L 474 680 
C 474 179 646 -64 1088 -64 
C 1306 -64 1798 -13 2144 307 
L 2144 -13 
L 2618 -13 
L 2618 2752 
z
" transform="scale(0.015625)"/>
       <path id="CMSS17-68" d="M 2618 1878 
C 2618 2283 2522 2816 1798 2816 
C 1395 2816 1133 2617 947 2399 
L 947 4416 
L 474 4416 
L 474 0 
L 960 0 
L 960 1556 
C 960 1962 1114 2425 1549 2425 
C 2112 2425 2131 2045 2131 1826 
L 2131 0 
L 2618 0 
L 2618 1878 
z
" transform="scale(0.015625)"/>
      </defs>
      <use xlink:href="#CMSS17-54" transform="scale(0.996264)"/>
      <use xlink:href="#CMSS17-72" transform="translate(56.012199 0) scale(0.996264)"/>
      <use xlink:href="#CMSS17-75" transform="translate(87.921971 0) scale(0.996264)"/>
      <use xlink:href="#CMSS17-74" transform="translate(136.126914 0) scale(0.996264)"/>
      <use xlink:href="#CMSS17-68" transform="translate(169.958481 0) scale(0.996264)"/>
     </g>
    </g>
   </g>
  </g>
 </g>
 <defs>
  <clipPath id="p7dc93d114c">
   <rect x="54.188821" y="56.619634" width="446.4" height="277.2"/>
  </clipPath>
 </defs>
</svg>
