<?xml version="1.0" encoding="utf-8" standalone="no"?>
<!DOCTYPE svg PUBLIC "-//W3C//DTD SVG 1.1//EN"
  "http://www.w3.org/Graphics/SVG/1.1/DTD/svg11.dtd">
<svg xmlns:xlink="http://www.w3.org/1999/xlink" width="498.650726pt" height="387.444894pt" viewBox="0 0 498.650726 387.444894" xmlns="http://www.w3.org/2000/svg" version="1.1">
 <metadata>
  <rdf:RDF xmlns:dc="http://purl.org/dc/elements/1.1/" xmlns:cc="http://creativecommons.org/ns#" xmlns:rdf="http://www.w3.org/1999/02/22-rdf-syntax-ns#">
   <cc:Work>
    <dc:type rdf:resource="http://purl.org/dc/dcmitype/StillImage"/>
    <dc:date>2024-08-11T20:29:11.187227</dc:date>
    <dc:format>image/svg+xml</dc:format>
    <dc:creator>
     <cc:Agent>
      <dc:title>Matplotlib v3.8.4, https://matplotlib.org/</dc:title>
     </cc:Agent>
    </dc:creator>
   </cc:Work>
  </rdf:RDF>
 </metadata>
 <defs>
  <style type="text/css">*{stroke-linejoin: round; stroke-linecap: butt}</style>
 </defs>
 <g id="figure_1">
  <g id="patch_1">
   <path d="M 0 387.444894 
L 498.650726 387.444894 
L 498.650726 0 
L 0 0 
z
" style="fill: #ffffff"/>
  </g>
  <g id="axes_1">
   <g id="patch_2">
    <path d="M 45.050726 333.819634 
L 491.450726 333.819634 
L 491.450726 56.619634 
L 45.050726 56.619634 
z
" style="fill: #ffffff"/>
   </g>
   <g id="PolyCollection_1">
    <defs>
     <path id="m1d2748ec98" d="M 65.341635 -318.225261 
L 65.341635 -66.225261 
L 73.457999 -93.43941 
L 81.574362 -89.618569 
L 89.690726 -94.977323 
L 97.807089 -111.032866 
L 105.923453 -124.304371 
L 114.039817 -130.349291 
L 122.15618 -130.776062 
L 130.272544 -132.595028 
L 138.388908 -131.87158 
L 146.505271 -130.831651 
L 154.621635 -129.836968 
L 162.737999 -129.40729 
L 170.854362 -127.060986 
L 178.970726 -127.384887 
L 187.087089 -127.228639 
L 195.203453 -127.343792 
L 203.319817 -125.99481 
L 211.43618 -126.409012 
L 219.552544 -126.059922 
L 227.668908 -126.860453 
L 235.785271 -126.801075 
L 243.901635 -127.119302 
L 252.017999 -127.105415 
L 260.134362 -127.37049 
L 268.250726 -127.150462 
L 276.367089 -126.596154 
L 284.483453 -125.993254 
L 292.599817 -126.283678 
L 300.71618 -125.944689 
L 308.832544 -125.993072 
L 316.948908 -126.198771 
L 325.065271 -126.274701 
L 333.181635 -125.778685 
L 341.297999 -126.662969 
L 349.414362 -126.470643 
L 357.530726 -126.237427 
L 365.647089 -126.543664 
L 373.763453 -126.796184 
L 381.879817 -126.588852 
L 389.99618 -126.81873 
L 398.112544 -126.986819 
L 406.228908 -127.053601 
L 414.345271 -127.089722 
L 422.461635 -127.049544 
L 430.577999 -126.89389 
L 438.694362 -127.088555 
L 446.810726 -127.606763 
L 454.927089 -127.708734 
L 463.043453 -127.918856 
L 471.159817 -127.895654 
L 471.159817 -130.769759 
L 471.159817 -130.769759 
L 463.043453 -130.81519 
L 454.927089 -130.646928 
L 446.810726 -130.577085 
L 438.694362 -130.084976 
L 430.577999 -129.924134 
L 422.461635 -130.128841 
L 414.345271 -130.214257 
L 406.228908 -130.2387 
L 398.112544 -130.230986 
L 389.99618 -130.091319 
L 381.879817 -129.898554 
L 373.763453 -130.15144 
L 365.647089 -129.950453 
L 357.530726 -129.729652 
L 349.414362 -130.044441 
L 341.297999 -130.311263 
L 333.181635 -129.480312 
L 325.065271 -130.018963 
L 316.948908 -129.992809 
L 308.832544 -129.830134 
L 300.71618 -129.835617 
L 292.599817 -130.240155 
L 284.483453 -129.994024 
L 276.367089 -130.698646 
L 268.250726 -131.370011 
L 260.134362 -131.673922 
L 252.017999 -131.562104 
L 243.901635 -131.671532 
L 235.785271 -131.512769 
L 227.668908 -131.697487 
L 219.552544 -130.982054 
L 211.43618 -131.422622 
L 203.319817 -131.165037 
L 195.203453 -132.686938 
L 187.087089 -132.872064 
L 178.970726 -133.239905 
L 170.854362 -133.22125 
L 162.737999 -135.846667 
L 154.621635 -136.759231 
L 146.505271 -138.120987 
L 138.388908 -140.146019 
L 130.272544 -141.54419 
L 122.15618 -140.509885 
L 114.039817 -141.191941 
L 105.923453 -137.465974 
L 97.807089 -127.019605 
L 89.690726 -116.907895 
L 81.574362 -120.970692 
L 73.457999 -126.912922 
L 65.341635 -318.225261 
z
" style="stroke: #00a6d6; stroke-opacity: 0.2"/>
    </defs>
    <g clip-path="url(#p93779d84df)">
     <use xlink:href="#m1d2748ec98" x="0" y="387.444894" style="fill: #00a6d6; fill-opacity: 0.2; stroke: #00a6d6; stroke-opacity: 0.2"/>
    </g>
   </g>
   <g id="matplotlib.axis_1">
    <g id="xtick_1">
     <g id="line2d_1">
      <path d="M 65.341635 333.819634 
L 65.341635 56.619634 
" clip-path="url(#p93779d84df)" style="fill: none; stroke: #b0b0b0; stroke-opacity: 0.4; stroke-width: 0.8; stroke-linecap: square"/>
     </g>
     <g id="line2d_2">
      <defs>
       <path id="m5c122a057c" d="M 0 0 
L 0 3.5 
" style="stroke: #000000; stroke-width: 0.8"/>
      </defs>
      <g>
       <use xlink:href="#m5c122a057c" x="65.341635" y="333.819634" style="stroke: #000000; stroke-width: 0.8"/>
      </g>
     </g>
     <g id="text_1">
      <!-- $\mathdefault{0}$ -->
      <g transform="translate(60.772587 354.65663) scale(0.2 -0.2)">
       <defs>
        <path id="CMR17-30" d="M 2688 2038 
C 2688 2430 2682 3099 2413 3613 
C 2176 4063 1798 4224 1466 4224 
C 1158 4224 768 4082 525 3620 
C 269 3137 243 2539 243 2038 
C 243 1671 250 1112 448 623 
C 723 -39 1216 -128 1466 -128 
C 1760 -128 2208 -7 2470 604 
C 2662 1048 2688 1568 2688 2038 
z
M 1466 -26 
C 1056 -26 813 328 723 816 
C 653 1196 653 1749 653 2109 
C 653 2604 653 3015 736 3407 
C 858 3954 1216 4121 1466 4121 
C 1728 4121 2067 3947 2189 3420 
C 2272 3054 2278 2623 2278 2109 
C 2278 1691 2278 1176 2202 797 
C 2067 96 1690 -26 1466 -26 
z
" transform="scale(0.015625)"/>
       </defs>
       <use xlink:href="#CMR17-30" transform="scale(0.996264)"/>
      </g>
     </g>
    </g>
    <g id="xtick_2">
     <g id="line2d_3">
      <path d="M 146.505271 333.819634 
L 146.505271 56.619634 
" clip-path="url(#p93779d84df)" style="fill: none; stroke: #b0b0b0; stroke-opacity: 0.4; stroke-width: 0.8; stroke-linecap: square"/>
     </g>
     <g id="line2d_4">
      <g>
       <use xlink:href="#m5c122a057c" x="146.505271" y="333.819634" style="stroke: #000000; stroke-width: 0.8"/>
      </g>
     </g>
     <g id="text_2">
      <!-- $\mathdefault{10}$ -->
      <g transform="translate(137.367176 354.65663) scale(0.2 -0.2)">
       <defs>
        <path id="CMR17-31" d="M 1702 4083 
C 1702 4217 1696 4224 1606 4224 
C 1357 3927 979 3833 621 3820 
C 602 3820 570 3820 563 3808 
C 557 3795 557 3782 557 3648 
C 755 3648 1088 3686 1344 3839 
L 1344 467 
C 1344 243 1331 166 781 166 
L 589 166 
L 589 0 
C 896 6 1216 12 1523 12 
C 1830 12 2150 6 2458 0 
L 2458 166 
L 2266 166 
C 1715 166 1702 236 1702 467 
L 1702 4083 
z
" transform="scale(0.015625)"/>
       </defs>
       <use xlink:href="#CMR17-31" transform="scale(0.996264)"/>
       <use xlink:href="#CMR17-30" transform="translate(45.690477 0) scale(0.996264)"/>
      </g>
     </g>
    </g>
    <g id="xtick_3">
     <g id="line2d_5">
      <path d="M 227.668908 333.819634 
L 227.668908 56.619634 
" clip-path="url(#p93779d84df)" style="fill: none; stroke: #b0b0b0; stroke-opacity: 0.4; stroke-width: 0.8; stroke-linecap: square"/>
     </g>
     <g id="line2d_6">
      <g>
       <use xlink:href="#m5c122a057c" x="227.668908" y="333.819634" style="stroke: #000000; stroke-width: 0.8"/>
      </g>
     </g>
     <g id="text_3">
      <!-- $\mathdefault{20}$ -->
      <g transform="translate(218.530812 354.65663) scale(0.2 -0.2)">
       <defs>
        <path id="CMR17-32" d="M 2669 990 
L 2554 990 
C 2490 537 2438 460 2413 422 
C 2381 371 1920 371 1830 371 
L 602 371 
C 832 620 1280 1073 1824 1596 
C 2214 1966 2669 2400 2669 3033 
C 2669 3788 2067 4224 1395 4224 
C 691 4224 262 3603 262 3027 
C 262 2777 448 2745 525 2745 
C 589 2745 781 2783 781 3007 
C 781 3206 614 3264 525 3264 
C 486 3264 448 3257 422 3244 
C 544 3788 915 4057 1306 4057 
C 1862 4057 2227 3616 2227 3033 
C 2227 2477 1901 1998 1536 1583 
L 262 147 
L 262 0 
L 2515 0 
L 2669 990 
z
" transform="scale(0.015625)"/>
       </defs>
       <use xlink:href="#CMR17-32" transform="scale(0.996264)"/>
       <use xlink:href="#CMR17-30" transform="translate(45.690477 0) scale(0.996264)"/>
      </g>
     </g>
    </g>
    <g id="xtick_4">
     <g id="line2d_7">
      <path d="M 308.832544 333.819634 
L 308.832544 56.619634 
" clip-path="url(#p93779d84df)" style="fill: none; stroke: #b0b0b0; stroke-opacity: 0.4; stroke-width: 0.8; stroke-linecap: square"/>
     </g>
     <g id="line2d_8">
      <g>
       <use xlink:href="#m5c122a057c" x="308.832544" y="333.819634" style="stroke: #000000; stroke-width: 0.8"/>
      </g>
     </g>
     <g id="text_4">
      <!-- $\mathdefault{30}$ -->
      <g transform="translate(299.694449 354.65663) scale(0.2 -0.2)">
       <defs>
        <path id="CMR17-33" d="M 1414 2176 
C 1984 2176 2234 1673 2234 1094 
C 2234 322 1824 25 1453 25 
C 1114 25 563 193 390 691 
C 422 678 454 678 486 678 
C 640 678 755 780 755 947 
C 755 1132 614 1216 486 1216 
C 378 1216 211 1164 211 927 
C 211 335 787 -128 1466 -128 
C 2176 -128 2720 432 2720 1087 
C 2720 1718 2208 2176 1600 2246 
C 2086 2347 2554 2776 2554 3353 
C 2554 3856 2048 4224 1472 4224 
C 890 4224 378 3862 378 3347 
C 378 3123 544 3084 627 3084 
C 762 3084 877 3167 877 3334 
C 877 3500 762 3584 627 3584 
C 602 3584 570 3584 544 3571 
C 730 3999 1235 4076 1459 4076 
C 1683 4076 2106 3966 2106 3347 
C 2106 3167 2080 2851 1862 2574 
C 1670 2329 1453 2316 1242 2297 
C 1210 2297 1062 2284 1037 2284 
C 992 2278 966 2272 966 2227 
C 966 2182 973 2176 1101 2176 
L 1414 2176 
z
" transform="scale(0.015625)"/>
       </defs>
       <use xlink:href="#CMR17-33" transform="scale(0.996264)"/>
       <use xlink:href="#CMR17-30" transform="translate(45.690477 0) scale(0.996264)"/>
      </g>
     </g>
    </g>
    <g id="xtick_5">
     <g id="line2d_9">
      <path d="M 389.99618 333.819634 
L 389.99618 56.619634 
" clip-path="url(#p93779d84df)" style="fill: none; stroke: #b0b0b0; stroke-opacity: 0.4; stroke-width: 0.8; stroke-linecap: square"/>
     </g>
     <g id="line2d_10">
      <g>
       <use xlink:href="#m5c122a057c" x="389.99618" y="333.819634" style="stroke: #000000; stroke-width: 0.8"/>
      </g>
     </g>
     <g id="text_5">
      <!-- $\mathdefault{40}$ -->
      <g transform="translate(380.858085 354.65663) scale(0.2 -0.2)">
       <defs>
        <path id="CMR17-34" d="M 2150 4147 
C 2150 4281 2144 4288 2029 4288 
L 128 1254 
L 128 1088 
L 1779 1088 
L 1779 460 
C 1779 230 1766 166 1318 166 
L 1197 166 
L 1197 0 
C 1402 12 1747 12 1965 12 
C 2182 12 2528 12 2733 0 
L 2733 166 
L 2611 166 
C 2163 166 2150 230 2150 460 
L 2150 1088 
L 2803 1088 
L 2803 1254 
L 2150 1254 
L 2150 4147 
z
M 1798 3723 
L 1798 1254 
L 256 1254 
L 1798 3723 
z
" transform="scale(0.015625)"/>
       </defs>
       <use xlink:href="#CMR17-34" transform="scale(0.996264)"/>
       <use xlink:href="#CMR17-30" transform="translate(45.690477 0) scale(0.996264)"/>
      </g>
     </g>
    </g>
    <g id="xtick_6">
     <g id="line2d_11">
      <path d="M 471.159817 333.819634 
L 471.159817 56.619634 
" clip-path="url(#p93779d84df)" style="fill: none; stroke: #b0b0b0; stroke-opacity: 0.4; stroke-width: 0.8; stroke-linecap: square"/>
     </g>
     <g id="line2d_12">
      <g>
       <use xlink:href="#m5c122a057c" x="471.159817" y="333.819634" style="stroke: #000000; stroke-width: 0.8"/>
      </g>
     </g>
     <g id="text_6">
      <!-- $\mathdefault{50}$ -->
      <g transform="translate(462.021721 354.65663) scale(0.2 -0.2)">
       <defs>
        <path id="CMR17-35" d="M 730 3750 
C 794 3724 1056 3641 1325 3641 
C 1920 3641 2246 3961 2432 4140 
C 2432 4191 2432 4224 2394 4224 
C 2387 4224 2374 4224 2323 4198 
C 2099 4102 1837 4032 1517 4032 
C 1325 4032 1037 4055 723 4191 
C 653 4224 640 4224 634 4224 
C 602 4224 595 4217 595 4090 
L 595 2231 
C 595 2113 595 2080 659 2080 
C 691 2080 704 2093 736 2139 
C 941 2435 1222 2560 1542 2560 
C 1766 2560 2246 2415 2246 1293 
C 2246 1087 2246 716 2054 422 
C 1894 159 1645 25 1370 25 
C 947 25 518 319 403 812 
C 429 806 480 793 506 793 
C 589 793 749 838 749 1036 
C 749 1209 627 1280 506 1280 
C 358 1280 262 1190 262 1011 
C 262 454 704 -128 1382 -128 
C 2042 -128 2669 441 2669 1267 
C 2669 2054 2170 2662 1549 2662 
C 1222 2662 947 2540 730 2304 
L 730 3750 
z
" transform="scale(0.015625)"/>
       </defs>
       <use xlink:href="#CMR17-35" transform="scale(0.996264)"/>
       <use xlink:href="#CMR17-30" transform="translate(45.690477 0) scale(0.996264)"/>
      </g>
     </g>
    </g>
    <g id="text_7">
     <!-- Assimilation steps -->
     <g transform="translate(198.497689 376.369261) scale(0.2 -0.2)">
      <defs>
       <path id="CMSS17-41" d="M 2272 4416 
L 1722 4416 
L 166 0 
L 653 0 
L 1101 1280 
L 2816 1280 
L 3270 0 
L 3827 0 
L 2272 4416 
z
M 2694 1638 
L 1222 1638 
C 1530 2530 1914 3638 1958 3924 
L 1965 3924 
C 2010 3663 2138 3281 2246 2956 
L 2694 1638 
z
" transform="scale(0.015625)"/>
       <path id="CMSS17-73" d="M 2061 2623 
C 1683 2803 1389 2816 1197 2816 
C 742 2816 198 2655 198 2009 
C 198 1363 902 1222 1094 1183 
C 1389 1126 1715 1062 1715 742 
C 1715 339 1254 339 1171 339 
C 915 339 563 409 243 639 
L 166 211 
C 531 0 883 -64 1178 -64 
C 1965 -64 2163 416 2163 780 
C 2163 1094 1984 1305 1862 1401 
C 1651 1567 1574 1587 1050 1695 
C 960 1708 646 1779 646 2067 
C 646 2431 1050 2431 1139 2431 
C 1555 2431 1811 2303 1984 2207 
L 2061 2623 
z
" transform="scale(0.015625)"/>
       <path id="CMSS17-69" d="M 979 4224 
L 442 4224 
L 442 3686 
L 979 3686 
L 979 4224 
z
M 947 2752 
L 474 2752 
L 474 0 
L 947 0 
L 947 2752 
z
" transform="scale(0.015625)"/>
       <path id="CMSS17-6d" d="M 4288 1878 
C 4288 2309 4179 2816 3462 2816 
C 2982 2816 2694 2515 2566 2328 
C 2451 2668 2182 2816 1798 2816 
C 1363 2816 1088 2566 941 2386 
L 941 2783 
L 474 2783 
L 474 0 
L 960 0 
L 960 1556 
C 960 1936 1101 2425 1555 2425 
C 2138 2425 2138 2013 2138 1826 
L 2138 0 
L 2624 0 
L 2624 1556 
C 2624 1936 2765 2425 3219 2425 
C 3802 2425 3802 2013 3802 1826 
L 3802 0 
L 4288 0 
L 4288 1878 
z
" transform="scale(0.015625)"/>
       <path id="CMSS17-6c" d="M 947 4416 
L 474 4416 
L 474 0 
L 947 0 
L 947 4416 
z
" transform="scale(0.015625)"/>
       <path id="CMSS17-61" d="M 2406 1789 
C 2406 2399 1978 2816 1402 2816 
C 1120 2816 813 2764 461 2559 
L 499 2133 
C 659 2250 934 2438 1395 2438 
C 1722 2438 1920 2185 1920 1782 
L 1920 1536 
C 896 1504 256 1209 256 711 
C 256 452 416 -64 947 -64 
C 1043 -64 1562 -52 1933 224 
L 1933 -13 
L 2406 -13 
L 2406 1789 
z
M 1920 824 
C 1920 711 1920 559 1728 446 
C 1562 339 1350 326 1261 326 
C 941 326 723 503 723 723 
C 723 1165 1722 1209 1920 1216 
L 1920 824 
z
" transform="scale(0.015625)"/>
       <path id="CMSS17-74" d="M 1069 2380 
L 1901 2380 
L 1901 2752 
L 1069 2752 
L 1069 3520 
L 614 3520 
L 614 2752 
L 109 2752 
L 109 2380 
L 602 2380 
L 602 751 
C 602 384 685 -64 1107 -64 
C 1427 -64 1722 25 2003 172 
L 1901 551 
C 1747 416 1562 339 1363 339 
C 1082 339 1069 699 1069 860 
L 1069 2380 
z
" transform="scale(0.015625)"/>
       <path id="CMSS17-6f" d="M 2829 1356 
C 2829 2175 2221 2816 1504 2816 
C 768 2816 173 2156 173 1356 
C 173 544 787 -64 1498 -64 
C 2227 -64 2829 563 2829 1356 
z
M 1504 339 
C 1050 339 659 710 659 1407 
C 659 2150 1114 2425 1498 2425 
C 1914 2425 2342 2124 2342 1407 
C 2342 684 1926 339 1504 339 
z
" transform="scale(0.015625)"/>
       <path id="CMSS17-6e" d="M 2618 1878 
C 2618 2283 2522 2816 1798 2816 
C 1389 2816 1120 2604 941 2386 
L 941 2783 
L 474 2783 
L 474 0 
L 960 0 
L 960 1556 
C 960 1962 1114 2425 1549 2425 
C 2112 2425 2131 2045 2131 1826 
L 2131 0 
L 2618 0 
L 2618 1878 
z
" transform="scale(0.015625)"/>
       <path id="CMSS17-65" d="M 2502 1375 
C 2502 1587 2490 2001 2285 2347 
C 2061 2713 1696 2816 1421 2816 
C 755 2816 192 2184 192 1363 
C 192 579 774 -64 1510 -64 
C 1798 -64 2150 19 2470 249 
C 2470 275 2458 414 2451 421 
C 2451 433 2432 629 2432 655 
C 2125 408 1773 326 1517 326 
C 1107 326 666 667 646 1375 
L 2502 1375 
z
M 698 1728 
C 781 2086 1062 2425 1421 2425 
C 1517 2425 1965 2412 2080 1728 
L 698 1728 
z
" transform="scale(0.015625)"/>
       <path id="CMSS17-70" d="M 966 275 
C 1178 70 1466 -64 1773 -64 
C 2368 -64 2880 553 2880 1382 
C 2880 2147 2496 2816 1946 2816 
C 1626 2816 1242 2700 954 2470 
L 954 2764 
L 480 2764 
L 480 -1280 
L 966 -1280 
L 966 275 
z
M 966 2088 
C 1018 2166 1235 2412 1587 2412 
C 2035 2412 2394 1946 2394 1382 
C 2394 741 1958 326 1530 326 
C 1402 326 1267 358 1139 468 
C 966 624 966 721 966 812 
L 966 2088 
z
" transform="scale(0.015625)"/>
      </defs>
      <use xlink:href="#CMSS17-41" transform="scale(0.996264)"/>
      <use xlink:href="#CMSS17-73" transform="translate(62.217855 0) scale(0.996264)"/>
      <use xlink:href="#CMSS17-73" transform="translate(98.131397 0) scale(0.996264)"/>
      <use xlink:href="#CMSS17-69" transform="translate(134.044939 0) scale(0.996264)"/>
      <use xlink:href="#CMSS17-6d" transform="translate(156.225662 0) scale(0.996264)"/>
      <use xlink:href="#CMSS17-69" transform="translate(230.454916 0) scale(0.996264)"/>
      <use xlink:href="#CMSS17-6c" transform="translate(252.635639 0) scale(0.996264)"/>
      <use xlink:href="#CMSS17-61" transform="translate(274.816362 0) scale(0.996264)"/>
      <use xlink:href="#CMSS17-74" transform="translate(319.738283 0) scale(0.996264)"/>
      <use xlink:href="#CMSS17-69" transform="translate(353.56985 0) scale(0.996264)"/>
      <use xlink:href="#CMSS17-6f" transform="translate(375.750573 0) scale(0.996264)"/>
      <use xlink:href="#CMSS17-6e" transform="translate(422.594196 0) scale(0.996264)"/>
      <use xlink:href="#CMSS17-73" transform="translate(502.028252 0) scale(0.996264)"/>
      <use xlink:href="#CMSS17-74" transform="translate(537.941794 0) scale(0.996264)"/>
      <use xlink:href="#CMSS17-65" transform="translate(571.773361 0) scale(0.996264)"/>
      <use xlink:href="#CMSS17-70" transform="translate(613.412183 0) scale(0.996264)"/>
      <use xlink:href="#CMSS17-73" transform="translate(661.617126 0) scale(0.996264)"/>
     </g>
    </g>
   </g>
   <g id="matplotlib.axis_2">
    <g id="ytick_1">
     <g id="line2d_13">
      <path d="M 45.050726 317.258103 
L 491.450726 317.258103 
" clip-path="url(#p93779d84df)" style="fill: none; stroke: #b0b0b0; stroke-opacity: 0.4; stroke-width: 0.8; stroke-linecap: square"/>
     </g>
     <g id="line2d_14">
      <defs>
       <path id="mee1e103bb5" d="M 0 0 
L -3.5 0 
" style="stroke: #000000; stroke-width: 0.8"/>
      </defs>
      <g>
       <use xlink:href="#mee1e103bb5" x="45.050726" y="317.258103" style="stroke: #000000; stroke-width: 0.8"/>
      </g>
     </g>
     <g id="text_8">
      <!-- $\mathdefault{0}$ -->
      <g transform="translate(28.91263 324.176601) scale(0.2 -0.2)">
       <use xlink:href="#CMR17-30" transform="scale(0.996264)"/>
      </g>
     </g>
    </g>
    <g id="ytick_2">
     <g id="line2d_15">
      <path d="M 45.050726 256.088021 
L 491.450726 256.088021 
" clip-path="url(#p93779d84df)" style="fill: none; stroke: #b0b0b0; stroke-opacity: 0.4; stroke-width: 0.8; stroke-linecap: square"/>
     </g>
     <g id="line2d_16">
      <g>
       <use xlink:href="#mee1e103bb5" x="45.050726" y="256.088021" style="stroke: #000000; stroke-width: 0.8"/>
      </g>
     </g>
     <g id="text_9">
      <!-- $\mathdefault{1}$ -->
      <g transform="translate(28.91263 263.006519) scale(0.2 -0.2)">
       <use xlink:href="#CMR17-31" transform="scale(0.996264)"/>
      </g>
     </g>
    </g>
    <g id="ytick_3">
     <g id="line2d_17">
      <path d="M 45.050726 194.917939 
L 491.450726 194.917939 
" clip-path="url(#p93779d84df)" style="fill: none; stroke: #b0b0b0; stroke-opacity: 0.4; stroke-width: 0.8; stroke-linecap: square"/>
     </g>
     <g id="line2d_18">
      <g>
       <use xlink:href="#mee1e103bb5" x="45.050726" y="194.917939" style="stroke: #000000; stroke-width: 0.8"/>
      </g>
     </g>
     <g id="text_10">
      <!-- $\mathdefault{2}$ -->
      <g transform="translate(28.91263 201.836437) scale(0.2 -0.2)">
       <use xlink:href="#CMR17-32" transform="scale(0.996264)"/>
      </g>
     </g>
    </g>
    <g id="ytick_4">
     <g id="line2d_19">
      <path d="M 45.050726 133.747856 
L 491.450726 133.747856 
" clip-path="url(#p93779d84df)" style="fill: none; stroke: #b0b0b0; stroke-opacity: 0.4; stroke-width: 0.8; stroke-linecap: square"/>
     </g>
     <g id="line2d_20">
      <g>
       <use xlink:href="#mee1e103bb5" x="45.050726" y="133.747856" style="stroke: #000000; stroke-width: 0.8"/>
      </g>
     </g>
     <g id="text_11">
      <!-- $\mathdefault{3}$ -->
      <g transform="translate(28.91263 140.666355) scale(0.2 -0.2)">
       <use xlink:href="#CMR17-33" transform="scale(0.996264)"/>
      </g>
     </g>
    </g>
    <g id="ytick_5">
     <g id="line2d_21">
      <path d="M 45.050726 72.577774 
L 491.450726 72.577774 
" clip-path="url(#p93779d84df)" style="fill: none; stroke: #b0b0b0; stroke-opacity: 0.4; stroke-width: 0.8; stroke-linecap: square"/>
     </g>
     <g id="line2d_22">
      <g>
       <use xlink:href="#mee1e103bb5" x="45.050726" y="72.577774" style="stroke: #000000; stroke-width: 0.8"/>
      </g>
     </g>
     <g id="text_12">
      <!-- $\mathdefault{4}$ -->
      <g transform="translate(28.91263 79.496273) scale(0.2 -0.2)">
       <use xlink:href="#CMR17-34" transform="scale(0.996264)"/>
      </g>
     </g>
    </g>
    <g id="text_13">
     <!-- Bias $b$ -->
     <g transform="translate(21.036997 219.025541) rotate(-90) scale(0.2 -0.2)">
      <defs>
       <path id="CMSS17-42" d="M 570 4416 
L 570 0 
L 2163 0 
C 3034 0 3667 575 3667 1200 
C 3667 1684 3251 2175 2502 2316 
C 3334 2559 3501 3039 3501 3311 
C 3501 3880 2874 4416 1997 4416 
L 570 4416 
z
M 1088 2496 
L 1088 4057 
L 1824 4057 
C 2483 4057 3002 3722 3002 3305 
C 3002 2925 2592 2496 1766 2496 
L 1088 2496 
z
M 1088 358 
L 1088 2105 
L 1939 2105 
C 2630 2105 3162 1678 3162 1206 
C 3162 772 2694 358 1984 358 
L 1088 358 
z
" transform="scale(0.015625)"/>
       <path id="CMMI12-62" d="M 1478 4255 
C 1485 4281 1498 4319 1498 4351 
C 1498 4416 1434 4416 1421 4416 
C 1414 4416 1184 4396 1069 4383 
C 960 4377 864 4364 749 4358 
C 595 4345 550 4339 550 4223 
C 550 4159 614 4159 678 4159 
C 1005 4159 1005 4103 1005 4040 
C 1005 3995 954 3812 928 3699 
L 774 3093 
C 710 2841 346 1392 320 1277 
C 288 1117 288 1008 288 925 
C 288 274 653 -64 1069 -64 
C 1811 -64 2579 887 2579 1813 
C 2579 2400 2246 2816 1766 2816 
C 1434 2816 1133 2541 1011 2413 
L 1478 4255 
z
M 1075 64 
C 870 64 646 217 646 715 
C 646 925 666 1047 781 1494 
C 800 1577 902 1985 928 2068 
C 941 2119 1318 2687 1754 2687 
C 2035 2687 2163 2407 2163 2075 
C 2163 1768 1984 1047 1824 715 
C 1664 370 1370 64 1075 64 
z
" transform="scale(0.015625)"/>
      </defs>
      <use xlink:href="#CMSS17-42" transform="scale(0.996264)"/>
      <use xlink:href="#CMSS17-69" transform="translate(62.33804 0) scale(0.996264)"/>
      <use xlink:href="#CMSS17-61" transform="translate(84.518763 0) scale(0.996264)"/>
      <use xlink:href="#CMSS17-73" transform="translate(129.440684 0) scale(0.996264)"/>
      <use xlink:href="#CMMI12-62" transform="translate(196.583339 0) scale(0.996264)"/>
     </g>
    </g>
   </g>
   <g id="line2d_23">
    <path d="M 65.341635 195.219634 
L 73.457999 195.219634 
L 73.457999 277.268728 
L 81.574362 277.268728 
L 81.574362 282.150264 
L 89.690726 282.150264 
L 89.690726 281.502286 
L 97.807089 281.502286 
L 97.807089 268.418659 
L 105.923453 268.418659 
L 105.923453 256.559722 
L 114.039817 256.559722 
L 114.039817 251.674278 
L 122.15618 251.674278 
L 122.15618 251.801921 
L 130.272544 251.801921 
L 130.272544 250.375285 
L 138.388908 250.375285 
L 138.388908 251.436095 
L 146.505271 251.436095 
L 146.505271 252.968575 
L 154.621635 252.968575 
L 154.621635 254.146795 
L 162.737999 254.146795 
L 162.737999 254.817916 
L 170.854362 254.817916 
L 170.854362 257.303776 
L 178.970726 257.303776 
L 178.970726 257.132499 
L 187.087089 257.132499 
L 187.087089 257.394543 
L 195.203453 257.394543 
L 195.203453 257.42953 
L 203.319817 257.42953 
L 203.319817 258.864971 
L 211.43618 258.864971 
L 211.43618 258.529077 
L 219.552544 258.529077 
L 219.552544 258.923906 
L 227.668908 258.923906 
L 227.668908 258.165924 
L 235.785271 258.165924 
L 235.785271 258.287972 
L 243.901635 258.287972 
L 243.901635 258.049477 
L 252.017999 258.049477 
L 252.017999 258.111135 
L 260.134362 258.111135 
L 260.134362 257.922688 
L 268.250726 257.922688 
L 268.250726 258.184658 
L 276.367089 258.184658 
L 276.367089 258.797494 
L 284.483453 258.797494 
L 284.483453 259.451255 
L 292.599817 259.451255 
L 292.599817 259.182978 
L 300.71618 259.182978 
L 300.71618 259.554741 
L 308.832544 259.554741 
L 308.832544 259.533291 
L 316.948908 259.533291 
L 316.948908 259.349104 
L 325.065271 259.349104 
L 325.065271 259.298062 
L 333.181635 259.298062 
L 333.181635 259.815396 
L 341.297999 259.815396 
L 341.297999 258.957778 
L 349.414362 258.957778 
L 349.414362 259.187353 
L 357.530726 259.187353 
L 357.530726 259.461355 
L 365.647089 259.461355 
L 365.647089 259.197836 
L 373.763453 259.197836 
L 373.763453 258.971083 
L 381.879817 258.971083 
L 381.879817 259.201191 
L 389.99618 259.201191 
L 389.99618 258.98987 
L 398.112544 258.98987 
L 398.112544 258.835992 
L 406.228908 258.835992 
L 406.228908 258.798744 
L 414.345271 258.798744 
L 414.345271 258.792905 
L 422.461635 258.792905 
L 422.461635 258.855702 
L 430.577999 258.855702 
L 430.577999 259.035882 
L 438.694362 259.035882 
L 438.694362 258.858129 
L 446.810726 258.858129 
L 446.810726 258.35297 
L 454.927089 258.35297 
L 454.927089 258.267063 
L 463.043453 258.267063 
L 463.043453 258.077871 
L 471.159817 258.077871 
L 471.159817 258.112188 
" clip-path="url(#p93779d84df)" style="fill: none; stroke: #00a6d6; stroke-width: 1.5; stroke-linecap: square"/>
    <defs>
     <path id="m39efc5939a" d="M 0 2.5 
C 0.663008 2.5 1.29895 2.236584 1.767767 1.767767 
C 2.236584 1.29895 2.5 0.663008 2.5 0 
C 2.5 -0.663008 2.236584 -1.29895 1.767767 -1.767767 
C 1.29895 -2.236584 0.663008 -2.5 0 -2.5 
C -0.663008 -2.5 -1.29895 -2.236584 -1.767767 -1.767767 
C -2.236584 -1.29895 -2.5 -0.663008 -2.5 0 
C -2.5 0.663008 -2.236584 1.29895 -1.767767 1.767767 
C -1.29895 2.236584 -0.663008 2.5 0 2.5 
z
" style="stroke: #00a6d6"/>
    </defs>
    <g clip-path="url(#p93779d84df)">
     <use xlink:href="#m39efc5939a" x="65.341635" y="195.219634" style="fill: #00a6d6; stroke: #00a6d6"/>
     <use xlink:href="#m39efc5939a" x="73.457999" y="277.268728" style="fill: #00a6d6; stroke: #00a6d6"/>
     <use xlink:href="#m39efc5939a" x="81.574362" y="282.150264" style="fill: #00a6d6; stroke: #00a6d6"/>
     <use xlink:href="#m39efc5939a" x="89.690726" y="281.502286" style="fill: #00a6d6; stroke: #00a6d6"/>
     <use xlink:href="#m39efc5939a" x="97.807089" y="268.418659" style="fill: #00a6d6; stroke: #00a6d6"/>
     <use xlink:href="#m39efc5939a" x="105.923453" y="256.559722" style="fill: #00a6d6; stroke: #00a6d6"/>
     <use xlink:href="#m39efc5939a" x="114.039817" y="251.674278" style="fill: #00a6d6; stroke: #00a6d6"/>
     <use xlink:href="#m39efc5939a" x="122.15618" y="251.801921" style="fill: #00a6d6; stroke: #00a6d6"/>
     <use xlink:href="#m39efc5939a" x="130.272544" y="250.375285" style="fill: #00a6d6; stroke: #00a6d6"/>
     <use xlink:href="#m39efc5939a" x="138.388908" y="251.436095" style="fill: #00a6d6; stroke: #00a6d6"/>
     <use xlink:href="#m39efc5939a" x="146.505271" y="252.968575" style="fill: #00a6d6; stroke: #00a6d6"/>
     <use xlink:href="#m39efc5939a" x="154.621635" y="254.146795" style="fill: #00a6d6; stroke: #00a6d6"/>
     <use xlink:href="#m39efc5939a" x="162.737999" y="254.817916" style="fill: #00a6d6; stroke: #00a6d6"/>
     <use xlink:href="#m39efc5939a" x="170.854362" y="257.303776" style="fill: #00a6d6; stroke: #00a6d6"/>
     <use xlink:href="#m39efc5939a" x="178.970726" y="257.132499" style="fill: #00a6d6; stroke: #00a6d6"/>
     <use xlink:href="#m39efc5939a" x="187.087089" y="257.394543" style="fill: #00a6d6; stroke: #00a6d6"/>
     <use xlink:href="#m39efc5939a" x="195.203453" y="257.42953" style="fill: #00a6d6; stroke: #00a6d6"/>
     <use xlink:href="#m39efc5939a" x="203.319817" y="258.864971" style="fill: #00a6d6; stroke: #00a6d6"/>
     <use xlink:href="#m39efc5939a" x="211.43618" y="258.529077" style="fill: #00a6d6; stroke: #00a6d6"/>
     <use xlink:href="#m39efc5939a" x="219.552544" y="258.923906" style="fill: #00a6d6; stroke: #00a6d6"/>
     <use xlink:href="#m39efc5939a" x="227.668908" y="258.165924" style="fill: #00a6d6; stroke: #00a6d6"/>
     <use xlink:href="#m39efc5939a" x="235.785271" y="258.287972" style="fill: #00a6d6; stroke: #00a6d6"/>
     <use xlink:href="#m39efc5939a" x="243.901635" y="258.049477" style="fill: #00a6d6; stroke: #00a6d6"/>
     <use xlink:href="#m39efc5939a" x="252.017999" y="258.111135" style="fill: #00a6d6; stroke: #00a6d6"/>
     <use xlink:href="#m39efc5939a" x="260.134362" y="257.922688" style="fill: #00a6d6; stroke: #00a6d6"/>
     <use xlink:href="#m39efc5939a" x="268.250726" y="258.184658" style="fill: #00a6d6; stroke: #00a6d6"/>
     <use xlink:href="#m39efc5939a" x="276.367089" y="258.797494" style="fill: #00a6d6; stroke: #00a6d6"/>
     <use xlink:href="#m39efc5939a" x="284.483453" y="259.451255" style="fill: #00a6d6; stroke: #00a6d6"/>
     <use xlink:href="#m39efc5939a" x="292.599817" y="259.182978" style="fill: #00a6d6; stroke: #00a6d6"/>
     <use xlink:href="#m39efc5939a" x="300.71618" y="259.554741" style="fill: #00a6d6; stroke: #00a6d6"/>
     <use xlink:href="#m39efc5939a" x="308.832544" y="259.533291" style="fill: #00a6d6; stroke: #00a6d6"/>
     <use xlink:href="#m39efc5939a" x="316.948908" y="259.349104" style="fill: #00a6d6; stroke: #00a6d6"/>
     <use xlink:href="#m39efc5939a" x="325.065271" y="259.298062" style="fill: #00a6d6; stroke: #00a6d6"/>
     <use xlink:href="#m39efc5939a" x="333.181635" y="259.815396" style="fill: #00a6d6; stroke: #00a6d6"/>
     <use xlink:href="#m39efc5939a" x="341.297999" y="258.957778" style="fill: #00a6d6; stroke: #00a6d6"/>
     <use xlink:href="#m39efc5939a" x="349.414362" y="259.187353" style="fill: #00a6d6; stroke: #00a6d6"/>
     <use xlink:href="#m39efc5939a" x="357.530726" y="259.461355" style="fill: #00a6d6; stroke: #00a6d6"/>
     <use xlink:href="#m39efc5939a" x="365.647089" y="259.197836" style="fill: #00a6d6; stroke: #00a6d6"/>
     <use xlink:href="#m39efc5939a" x="373.763453" y="258.971083" style="fill: #00a6d6; stroke: #00a6d6"/>
     <use xlink:href="#m39efc5939a" x="381.879817" y="259.201191" style="fill: #00a6d6; stroke: #00a6d6"/>
     <use xlink:href="#m39efc5939a" x="389.99618" y="258.98987" style="fill: #00a6d6; stroke: #00a6d6"/>
     <use xlink:href="#m39efc5939a" x="398.112544" y="258.835992" style="fill: #00a6d6; stroke: #00a6d6"/>
     <use xlink:href="#m39efc5939a" x="406.228908" y="258.798744" style="fill: #00a6d6; stroke: #00a6d6"/>
     <use xlink:href="#m39efc5939a" x="414.345271" y="258.792905" style="fill: #00a6d6; stroke: #00a6d6"/>
     <use xlink:href="#m39efc5939a" x="422.461635" y="258.855702" style="fill: #00a6d6; stroke: #00a6d6"/>
     <use xlink:href="#m39efc5939a" x="430.577999" y="259.035882" style="fill: #00a6d6; stroke: #00a6d6"/>
     <use xlink:href="#m39efc5939a" x="438.694362" y="258.858129" style="fill: #00a6d6; stroke: #00a6d6"/>
     <use xlink:href="#m39efc5939a" x="446.810726" y="258.35297" style="fill: #00a6d6; stroke: #00a6d6"/>
     <use xlink:href="#m39efc5939a" x="454.927089" y="258.267063" style="fill: #00a6d6; stroke: #00a6d6"/>
     <use xlink:href="#m39efc5939a" x="463.043453" y="258.077871" style="fill: #00a6d6; stroke: #00a6d6"/>
     <use xlink:href="#m39efc5939a" x="471.159817" y="258.112188" style="fill: #00a6d6; stroke: #00a6d6"/>
    </g>
   </g>
   <g id="line2d_24">
    <path d="M 45.050726 256.088021 
L 491.450726 256.088021 
" clip-path="url(#p93779d84df)" style="fill: none; stroke-dasharray: 1.5,2.475; stroke-dashoffset: 0; stroke: #00a6d6; stroke-opacity: 0.8; stroke-width: 1.5"/>
   </g>
   <g id="patch_3">
    <path d="M 45.050726 333.819634 
L 45.050726 56.619634 
" style="fill: none; stroke: #000000; stroke-width: 0.8; stroke-linejoin: miter; stroke-linecap: square"/>
   </g>
   <g id="patch_4">
    <path d="M 491.450726 333.819634 
L 491.450726 56.619634 
" style="fill: none; stroke: #000000; stroke-width: 0.8; stroke-linejoin: miter; stroke-linecap: square"/>
   </g>
   <g id="patch_5">
    <path d="M 45.050726 333.819634 
L 491.450726 333.819634 
" style="fill: none; stroke: #000000; stroke-width: 0.8; stroke-linejoin: miter; stroke-linecap: square"/>
   </g>
   <g id="patch_6">
    <path d="M 45.050726 56.619634 
L 491.450726 56.619634 
" style="fill: none; stroke: #000000; stroke-width: 0.8; stroke-linejoin: miter; stroke-linecap: square"/>
   </g>
   <g id="legend_1">
    <g id="patch_7">
     <path d="M 369.818053 41.075634 
L 477.450726 41.075634 
Q 481.450726 41.075634 481.450726 37.075634 
L 481.450726 11.2 
Q 481.450726 7.2 477.450726 7.2 
L 369.818053 7.2 
Q 365.818053 7.2 365.818053 11.2 
L 365.818053 37.075634 
Q 365.818053 41.075634 369.818053 41.075634 
z
" style="fill: #ffffff; opacity: 0.8; stroke: #cccccc; stroke-linejoin: miter"/>
    </g>
    <g id="line2d_25">
     <path d="M 373.818053 22.2 
L 393.818053 22.2 
L 413.818053 22.2 
" style="fill: none; stroke-dasharray: 1.5,2.475; stroke-dashoffset: 0; stroke: #00a6d6; stroke-opacity: 0.8; stroke-width: 1.5"/>
    </g>
    <g id="text_14">
     <!-- Truth -->
     <g transform="translate(429.818053 29.2) scale(0.2 -0.2)">
      <defs>
       <path id="CMSS17-54" d="M 2317 3987 
L 2848 3987 
C 2925 3987 3002 3980 3078 3980 
L 3878 3980 
L 3878 4396 
L 218 4396 
L 218 3980 
L 1018 3980 
C 1094 3980 1171 3987 1248 3987 
L 1779 3987 
L 1779 0 
L 2317 0 
L 2317 3987 
z
" transform="scale(0.015625)"/>
       <path id="CMSS17-72" d="M 954 1369 
C 954 1974 1395 2379 1958 2392 
L 1958 2816 
C 1549 2809 1165 2604 934 2270 
L 934 2783 
L 480 2783 
L 480 0 
L 954 0 
L 954 1369 
z
" transform="scale(0.015625)"/>
       <path id="CMSS17-75" d="M 2618 2752 
L 2131 2752 
L 2131 976 
C 2131 500 1786 307 1421 307 
C 998 307 960 448 960 712 
L 960 2752 
L 474 2752 
L 474 680 
C 474 179 646 -64 1088 -64 
C 1306 -64 1798 -13 2144 307 
L 2144 -13 
L 2618 -13 
L 2618 2752 
z
" transform="scale(0.015625)"/>
       <path id="CMSS17-68" d="M 2618 1878 
C 2618 2283 2522 2816 1798 2816 
C 1395 2816 1133 2617 947 2399 
L 947 4416 
L 474 4416 
L 474 0 
L 960 0 
L 960 1556 
C 960 1962 1114 2425 1549 2425 
C 2112 2425 2131 2045 2131 1826 
L 2131 0 
L 2618 0 
L 2618 1878 
z
" transform="scale(0.015625)"/>
      </defs>
      <use xlink:href="#CMSS17-54" transform="scale(0.996264)"/>
      <use xlink:href="#CMSS17-72" transform="translate(56.012199 0) scale(0.996264)"/>
      <use xlink:href="#CMSS17-75" transform="translate(87.921971 0) scale(0.996264)"/>
      <use xlink:href="#CMSS17-74" transform="translate(136.126914 0) scale(0.996264)"/>
      <use xlink:href="#CMSS17-68" transform="translate(169.958481 0) scale(0.996264)"/>
     </g>
    </g>
   </g>
  </g>
 </g>
 <defs>
  <clipPath id="p93779d84df">
   <rect x="45.050726" y="56.619634" width="446.4" height="277.2"/>
  </clipPath>
 </defs>
</svg>
